<svg width="78" height="82" viewBox="0 0 78 82" fill="none" xmlns="http://www.w3.org/2000/svg">
<g filter="url(#filter0_d)">
<path d="M35.55 5.03208L9.45 20.1821C7.35 21.3821 6 23.6321 6 26.1821V55.8821C6 58.2821 7.35 60.6821 9.45 61.8821L35.4 76.8821C37.5 78.0821 40.2 78.0821 42.3 76.8821L68.4 61.7321C70.5 60.5321 71.85 58.2821 71.85 55.7321L72 25.8821C72 23.4821 70.65 21.0821 68.55 19.8821L42.6 4.88208C40.35 3.68208 37.65 3.68208 35.55 5.03208Z" fill="white"/>
</g>
<path d="M35.4 45.5321V70.5821L13.5 58.1321C12 57.2321 10.95 55.5821 10.95 53.7821V28.7321L32.85 41.3321C34.5 42.0821 35.4 43.7321 35.4 45.5321Z" fill="#0A2463"/>
<path d="M44.4 41.3322L66.3 28.5822V53.7822C66.3 55.5822 65.4 57.2322 63.9 57.9822L42 70.7322V45.5322C41.85 43.7322 42.9 42.2322 44.4 41.3322Z" fill="#FD7268"/>
<path d="M14.55 23.4822L36.3001 10.8822C37.9501 9.98215 40.05 9.98215 41.7 10.8822L63.45 23.3322L41.7 35.9322C40.05 36.8322 37.9501 36.8322 36.3001 35.9322L14.55 23.4822Z" fill="#0A2463"/>
<defs>
<filter id="filter0_d" x="2" y="0" width="74" height="81.7821" filterUnits="userSpaceOnUse" color-interpolation-filters="sRGB">
<feFlood flood-opacity="0" result="BackgroundImageFix"/>
<feColorMatrix in="SourceAlpha" type="matrix" values="0 0 0 0 0 0 0 0 0 0 0 0 0 0 0 0 0 0 127 0"/>
<feOffset/>
<feGaussianBlur stdDeviation="2"/>
<feColorMatrix type="matrix" values="0 0 0 0 0 0 0 0 0 0 0 0 0 0 0 0 0 0 0.25 0"/>
<feBlend mode="normal" in2="BackgroundImageFix" result="effect1_dropShadow"/>
<feBlend mode="normal" in="SourceGraphic" in2="effect1_dropShadow" result="shape"/>
</filter>
</defs>
</svg>
