<svg width="74" height="82" viewBox="0 0 74 82" fill="none" xmlns="http://www.w3.org/2000/svg">
<g filter="url(#filter0_d)">
<path d="M33.7 4.89976L7.59999 20.0457C5.49999 21.2453 4.15001 23.4947 4.15001 26.044L4 55.8859C4 58.2853 5.35 60.6846 7.45 61.8843L33.4 76.8802C35.5 78.0799 38.2 78.0799 40.3 76.8802L66.4 61.7344C68.5 60.5347 69.85 58.2853 69.85 55.736L70 25.8941C70 23.4947 68.65 21.0954 66.55 19.8957L40.6 4.89976C38.5 3.70008 35.8 3.70008 33.7 4.89976Z" fill="white"/>
<path d="M64.45 27.9943C64.45 26.1948 63.55 24.5452 62.05 23.6455L51.25 17.3472L44.65 13.4483C44.65 13.4483 44.65 13.4483 44.5 13.4483L40.15 10.8989C40 10.749 39.7 10.599 39.55 10.599L34.75 8.04972C32.95 6.85004 30.85 6.70008 29.05 7.59984L28.3 8.04972L7.44999 20.1964C6.09999 20.9462 5.34998 22.2959 5.34998 22.2959C6.99998 21.3961 9.24998 21.5461 10.75 22.5958L21.55 28.7441L27.55 32.1932L28.6 32.793L37.3 37.8916C38.8 38.7914 39.85 40.4409 39.85 42.2405V54.5371V70.8827L61.75 58.1361C63.25 57.2364 64.15 55.5868 64.15 53.9373V41.1907L64.45 27.9943Z" fill="#0A2463"/>
<path d="M33.4 72.6813V67.5827V45.3887C33.4 43.5892 32.5 41.9396 30.85 41.0399L14.8 31.7424L8.95001 28.4433V47.6381V48.088V53.6365C8.95001 53.7864 8.95001 53.9364 8.95001 54.2363V59.035C8.80001 61.1344 9.69999 63.0839 11.35 64.1336L12.1 64.5835L33.1 76.7302C34.75 77.63 35.8 77.7799 35.8 77.7799C34.15 76.5803 33.25 74.6308 33.4 72.6813Z" fill="#0A2463"/>
</g>
<defs>
<filter id="filter0_d" x="0" y="0" width="74" height="81.78" filterUnits="userSpaceOnUse" color-interpolation-filters="sRGB">
<feFlood flood-opacity="0" result="BackgroundImageFix"/>
<feColorMatrix in="SourceAlpha" type="matrix" values="0 0 0 0 0 0 0 0 0 0 0 0 0 0 0 0 0 0 127 0"/>
<feOffset/>
<feGaussianBlur stdDeviation="2"/>
<feColorMatrix type="matrix" values="0 0 0 0 0 0 0 0 0 0 0 0 0 0 0 0 0 0 0.25 0"/>
<feBlend mode="normal" in2="BackgroundImageFix" result="effect1_dropShadow"/>
<feBlend mode="normal" in="SourceGraphic" in2="effect1_dropShadow" result="shape"/>
</filter>
</defs>
</svg>
