<svg width="74" height="82" viewBox="0 0 74 82" fill="none" xmlns="http://www.w3.org/2000/svg">
<g filter="url(#filter0_d)">
<path d="M33.55 5.03208L7.45 20.1821C5.35 21.3821 4 23.6321 4 26.1821V55.8821C4 58.2821 5.35 60.6821 7.45 61.8821L33.4 76.8821C35.5 78.0821 38.2 78.0821 40.3 76.8821L66.4 61.7321C68.5 60.5321 69.85 58.2821 69.85 55.7321L70 25.8821C70 23.4821 68.65 21.0821 66.55 19.8821L40.6 4.88208C38.35 3.68208 35.65 3.68208 33.55 5.03208Z" fill="white"/>
</g>
<path d="M33.4 45.5321V70.5821L11.5 58.1321C9.99998 57.2321 8.94998 55.5821 8.94998 53.7821V28.7321L30.85 41.3321C32.5 42.0821 33.4 43.7321 33.4 45.5321Z" fill="#0A2463"/>
<path d="M42.4 41.3322L64.3 28.5822V53.7822C64.3 55.5822 63.4 57.2322 61.9 57.9822L40 70.7322V45.5322C39.85 43.7322 40.9 42.2322 42.4 41.3322Z" fill="#FD7268"/>
<path d="M12.55 23.4822L34.3 10.8822C35.95 9.98215 38.05 9.98215 39.7 10.8822L61.45 23.3322L39.7 35.9322C38.05 36.8322 35.95 36.8322 34.3 35.9322L12.55 23.4822Z" fill="#0A2463"/>
<defs>
<filter id="filter0_d" x="0" y="0" width="74" height="81.7821" filterUnits="userSpaceOnUse" color-interpolation-filters="sRGB">
<feFlood flood-opacity="0" result="BackgroundImageFix"/>
<feColorMatrix in="SourceAlpha" type="matrix" values="0 0 0 0 0 0 0 0 0 0 0 0 0 0 0 0 0 0 127 0"/>
<feOffset/>
<feGaussianBlur stdDeviation="2"/>
<feColorMatrix type="matrix" values="0 0 0 0 0 0 0 0 0 0 0 0 0 0 0 0 0 0 0.25 0"/>
<feBlend mode="normal" in2="BackgroundImageFix" result="effect1_dropShadow"/>
<feBlend mode="normal" in="SourceGraphic" in2="effect1_dropShadow" result="shape"/>
</filter>
</defs>
</svg>
