<svg width="74" height="82" viewBox="0 0 74 82" fill="none" xmlns="http://www.w3.org/2000/svg">
<g filter="url(#filter0_d)">
<path d="M33.55 4.89793L7.45 20.0131C5.35 21.2103 4 23.4552 4 25.9993V55.7807C4 58.1752 5.35 60.5696 7.45 61.7669L33.4 76.7324C35.5 77.9296 38.2 77.9296 40.3 76.7324L66.4 61.6172C68.5 60.42 69.85 58.1752 69.85 55.631L70 25.8497C70 23.4552 68.65 21.0607 66.55 19.8634L40.6 4.89793C38.35 3.70069 35.65 3.70069 33.55 4.89793Z" fill="white"/>
</g>
<path d="M33.4 45.4545V70.4469L11.5 57.8759C10 56.9779 8.95 55.3317 8.95 53.5359V28.5435L14.8 31.8359L30.85 41.1145C32.5 42.0124 33.4 43.6586 33.4 45.4545Z" fill="#FD7268"/>
<path d="M64.3 27.9448C64.3 26.149 63.4 24.5028 61.9 23.6048L51.1 17.3193L44.5 13.4283C44.5 13.4283 44.5 13.4283 44.35 13.4283L40 10.8842C39.85 10.7345 39.55 10.5848 39.4 10.5848L35.05 8.04071C33.25 6.84347 30.9779 6.49293 29.1779 7.39086L28.2096 8.04071L7.45 20.0131C6.1 20.7614 5.35 22.1083 5.35 22.1083C7 21.2104 9.25 21.36 10.75 22.4076L21.55 28.5435L27.55 31.9855L28.6 32.5842L37.3 37.6724C38.8 38.5704 39.85 40.2166 39.85 42.0124V54.2841V60.5697V72.6917C40 74.6373 39.1 76.7324 37.45 77.78C37.45 77.78 38.8 77.78 40.15 77.0317L61.15 64.9097C61.15 64.9097 62.05 64.311 62.2 64.311C62.35 64.1614 62.35 64.1614 62.5 64.0117C63.7 62.9641 64.45 61.3179 64.3 59.5221V53.9848V53.8352V41.1145V27.9448Z" fill="#FD7268"/>
<defs>
<filter id="filter0_d" x="0" y="0" width="74" height="81.6303" filterUnits="userSpaceOnUse" color-interpolation-filters="sRGB">
<feFlood flood-opacity="0" result="BackgroundImageFix"/>
<feColorMatrix in="SourceAlpha" type="matrix" values="0 0 0 0 0 0 0 0 0 0 0 0 0 0 0 0 0 0 127 0"/>
<feOffset/>
<feGaussianBlur stdDeviation="2"/>
<feColorMatrix type="matrix" values="0 0 0 0 0 0 0 0 0 0 0 0 0 0 0 0 0 0 0.25 0"/>
<feBlend mode="normal" in2="BackgroundImageFix" result="effect1_dropShadow"/>
<feBlend mode="normal" in="SourceGraphic" in2="effect1_dropShadow" result="shape"/>
</filter>
</defs>
</svg>
