<svg width="74" height="82" viewBox="0 0 74 82" fill="none" xmlns="http://www.w3.org/2000/svg">
<g filter="url(#filter0_d)">
<path d="M33.7 5.01068L7.6 20.1335C5.5 21.3314 4.15 23.5773 4.15 26.1228L4 55.9193C4 58.315 5.35 60.7107 7.45 61.9085L33.4 76.8816C35.5 78.0795 38.2 78.0795 40.3 76.8816L66.4 61.7588C68.5 60.5609 69.85 58.315 69.85 55.7695L70 25.973C70 23.5773 68.65 21.1816 66.55 19.9838L40.6 5.01068C38.5 3.6631 35.8 3.6631 33.7 5.01068Z" fill="white"/>
<path d="M33.55 45.4381C33.55 43.6413 32.65 41.9943 31 41.0959L14.95 31.8126L9.10003 28.5185L7.90002 27.7698C6.10002 27.0212 4.90003 25.2244 4.75003 23.2779C4.75003 23.2779 4.15002 24.4757 4.15002 25.9731V50.0798V50.9781C4.30002 52.9247 5.50003 54.7214 7.45003 55.6198L16.9 61.0101H17.05L33.4 70.4432L33.55 45.4381Z" fill="#0A2463"/>
<path d="M64.45 40.9461V28.0692C64.45 26.2724 63.55 24.6254 62.05 23.727L51.7 17.7377L40 10.9998C38.35 10.1015 36.25 10.1015 34.6 10.9998L12.85 23.5773L27.7 32.1119L28.9 32.7108L37.6 37.8017C39.1 38.7001 40.15 40.3471 40.15 42.1439V54.4219V60.5608V72.6891C40.3 74.6356 39.4 76.7318 37.75 77.7799C37.75 77.7799 39.1 77.7799 40.45 77.0313L61.45 64.903C61.45 64.903 62.35 64.3041 62.5 64.3041C62.65 64.1544 62.65 64.1544 62.8 64.0047C64 62.9565 64.75 61.3095 64.6 59.5127V53.9727C64.6 53.9727 64.6 53.9727 64.6 53.8229V48.4326L64.45 40.9461Z" fill="#0A2463"/>
</g>
<defs>
<filter id="filter0_d" x="0" y="0" width="74" height="81.78" filterUnits="userSpaceOnUse" color-interpolation-filters="sRGB">
<feFlood flood-opacity="0" result="BackgroundImageFix"/>
<feColorMatrix in="SourceAlpha" type="matrix" values="0 0 0 0 0 0 0 0 0 0 0 0 0 0 0 0 0 0 127 0"/>
<feOffset/>
<feGaussianBlur stdDeviation="2"/>
<feColorMatrix type="matrix" values="0 0 0 0 0 0 0 0 0 0 0 0 0 0 0 0 0 0 0.25 0"/>
<feBlend mode="normal" in2="BackgroundImageFix" result="effect1_dropShadow"/>
<feBlend mode="normal" in="SourceGraphic" in2="effect1_dropShadow" result="shape"/>
</filter>
</defs>
</svg>
