<svg xmlns="http://www.w3.org/2000/svg" xmlns:xlink="http://www.w3.org/1999/xlink" width="1310" height="798.14"><rect width="1310" height="798.14" rx="5" ry="5" class="a"/><svg y="0%" x="0%"><circle cx="20" cy="20" r="6" fill="#ff5f58"/><circle cx="40" cy="20" r="6" fill="#ffbd2e"/><circle cx="60" cy="20" r="6" fill="#18c132"/></svg><svg height="738.14" viewBox="0 0 127 73.814" width="1270" x="15" xmlns="http://www.w3.org/2000/svg" xmlns:xlink="http://www.w3.org/1999/xlink" y="50"><style>@keyframes i{0%{transform:translateX(0)}.2%{transform:translateX(-254px)}11.6%{transform:translateX(-381px)}14.5%{transform:translateX(-508px)}17.9%{transform:translateX(-635px)}19.3%{transform:translateX(-762px)}20.8%{transform:translateX(-889px)}23.7%{transform:translateX(-1016px)}25.5%{transform:translateX(-1143px)}27.2%{transform:translateX(-1270px)}30.4%{transform:translateX(-1397px)}31.7%{transform:translateX(-1524px)}34.5%{transform:translateX(-1651px)}35.6%{transform:translateX(-1778px)}37.8%{transform:translateX(-1905px)}38.8%{transform:translateX(-2032px)}43.5%{transform:translateX(-2159px)}43.6%{transform:translateX(-2540px)}53.7%{transform:translateX(-2667px)}55.1%{transform:translateX(-2794px)}58%{transform:translateX(-2921px)}59.3%{transform:translateX(-3048px)}62.1%{transform:translateX(-3175px)}64.2%{transform:translateX(-3302px)}66.1%{transform:translateX(-3429px)}68.9%{transform:translateX(-3556px)}69.7%{transform:translateX(-3683px)}72.2%{transform:translateX(-3810px)}73.5%{transform:translateX(-3937px)}75.7%{transform:translateX(-4064px)}76.7%{transform:translateX(-4191px)}85.3%{transform:translateX(-4318px)}86.7%{transform:translateX(-4445px)}86.8%{transform:translateX(-4699px)}to{transform:translateX(-4826px)}}.a{fill:#282d35}.f{fill:#b9c0cb;white-space:pre}</style><g font-family="Monaco,Consolas,Menlo,'Bitstream Vera Sans Mono','Powerline Symbols',monospace" font-size="1.67"><defs><symbol id="1"><text y="1.67" class="f">[sugarcube-project]$</text></symbol><symbol id="2"><text y="1.67" class="f">[sugarcube-project]$</text><text x="21.042" y="1.67" class="f">n</text></symbol><symbol id="3"><text y="1.67" class="f">[sugarcube-project]$</text><text x="21.042" y="1.67" class="f">node</text></symbol><symbol id="4"><text y="1.67" class="f">[sugarcube-project]$</text><text x="21.042" y="1.67" class="f">node</text><text x="26.052" y="1.67" class="f">--version</text></symbol><symbol id="5"><text y="1.67" class="f">v10.15.2</text></symbol><symbol id="6"><text y="1.67" class="f">[sugarcube-project]$</text><text x="21.042" y="1.67" class="f">npm</text></symbol><symbol id="7"><text y="1.67" class="f">[sugarcube-project]$</text><text x="21.042" y="1.67" class="f">npm</text><text x="25.05" y="1.67" class="f">--version</text></symbol><symbol id="8"><text y="1.67" class="f">6.4.1</text></symbol><symbol id="a"><path fill="transparent" d="M0 0h127v34H0z"/></symbol><symbol id="b"><path fill="#6f7683" d="M0 0h1.102v2.171H0z"/></symbol></defs><path class="a" d="M0 0h127v73.814H0z"/><g style="animation-duration:8.55886s;animation-iteration-count:infinite;animation-name:i;animation-timing-function:steps(1,end)"><svg width="4953"><svg><use xlink:href="#a"/><use xlink:href="#b" x="-.004"/></svg><svg x="127"><use xlink:href="#a"/><use xlink:href="#b" x="-.004"/></svg><svg x="254"><use xlink:href="#a"/><use xlink:href="#b" x="20.996"/><use xlink:href="#1"/></svg><svg x="381"><use xlink:href="#a"/><use xlink:href="#b" x="21.996"/><use xlink:href="#2"/></svg><svg x="508"><use xlink:href="#a"/><use xlink:href="#b" x="22.996"/><text y="1.67" class="f">[sugarcube-project]$</text><text x="21.042" y="1.67" class="f">no</text></svg><svg x="635"><use xlink:href="#a"/><use xlink:href="#b" x="23.996"/><text y="1.67" class="f">[sugarcube-project]$</text><text x="21.042" y="1.67" class="f">nod</text></svg><svg x="762"><use xlink:href="#a"/><use xlink:href="#b" x="24.996"/><use xlink:href="#3"/></svg><svg x="889"><use xlink:href="#a"/><use xlink:href="#b" x="25.996"/><use xlink:href="#3"/></svg><svg x="1016"><use xlink:href="#a"/><use xlink:href="#b" x="26.996"/><text y="1.67" class="f">[sugarcube-project]$</text><text x="21.042" y="1.67" class="f">node</text><text x="26.052" y="1.67" class="f">-</text></svg><svg x="1143"><use xlink:href="#a"/><use xlink:href="#b" x="27.996"/><text y="1.67" class="f">[sugarcube-project]$</text><text x="21.042" y="1.67" class="f">node</text><text x="26.052" y="1.67" class="f">--</text></svg><svg x="1270"><use xlink:href="#a"/><use xlink:href="#b" x="28.996"/><text y="1.67" class="f">[sugarcube-project]$</text><text x="21.042" y="1.67" class="f">node</text><text x="26.052" y="1.67" class="f">--v</text></svg><svg x="1397"><use xlink:href="#a"/><use xlink:href="#b" x="29.996"/><text y="1.67" class="f">[sugarcube-project]$</text><text x="21.042" y="1.67" class="f">node</text><text x="26.052" y="1.67" class="f">--ve</text></svg><svg x="1524"><use xlink:href="#a"/><use xlink:href="#b" x="30.996"/><text y="1.67" class="f">[sugarcube-project]$</text><text x="21.042" y="1.67" class="f">node</text><text x="26.052" y="1.67" class="f">--ver</text></svg><svg x="1651"><use xlink:href="#a"/><use xlink:href="#b" x="31.996"/><text y="1.67" class="f">[sugarcube-project]$</text><text x="21.042" y="1.67" class="f">node</text><text x="26.052" y="1.67" class="f">--vers</text></svg><svg x="1778"><use xlink:href="#a"/><use xlink:href="#b" x="32.996"/><text y="1.67" class="f">[sugarcube-project]$</text><text x="21.042" y="1.67" class="f">node</text><text x="26.052" y="1.67" class="f">--versi</text></svg><svg x="1905"><use xlink:href="#a"/><use xlink:href="#b" x="33.996"/><text y="1.67" class="f">[sugarcube-project]$</text><text x="21.042" y="1.67" class="f">node</text><text x="26.052" y="1.67" class="f">--versio</text></svg><svg x="2032"><use xlink:href="#a"/><use xlink:href="#b" x="34.996"/><use xlink:href="#4"/></svg><svg x="2159"><use xlink:href="#a"/><use xlink:href="#b" x="-.004" y="2.146"/><use xlink:href="#4"/></svg><svg x="2286"><use xlink:href="#a"/><use xlink:href="#b" x="-.004" y="4.317"/><use xlink:href="#4"/><use xlink:href="#5" y="2.171"/></svg><svg x="2413"><use xlink:href="#a"/><use xlink:href="#b" x="-.004" y="4.317"/><use xlink:href="#4"/><use xlink:href="#5" y="2.171"/></svg><svg x="2540"><use xlink:href="#a"/><use xlink:href="#b" x="20.996" y="4.317"/><use xlink:href="#4"/><use xlink:href="#5" y="2.171"/><use xlink:href="#1" y="4.342"/></svg><svg x="2667"><use xlink:href="#a"/><use xlink:href="#b" x="21.996" y="4.317"/><use xlink:href="#4"/><use xlink:href="#5" y="2.171"/><use xlink:href="#2" y="4.342"/></svg><svg x="2794"><use xlink:href="#a"/><use xlink:href="#b" x="22.996" y="4.317"/><use xlink:href="#4"/><use xlink:href="#5" y="2.171"/><text y="6.012" class="f">[sugarcube-project]$</text><text x="21.042" y="6.012" class="f">np</text></svg><svg x="2921"><use xlink:href="#a"/><use xlink:href="#b" x="23.996" y="4.317"/><use xlink:href="#4"/><use xlink:href="#5" y="2.171"/><use xlink:href="#6" y="4.342"/></svg><svg x="3048"><use xlink:href="#a"/><use xlink:href="#b" x="24.996" y="4.317"/><use xlink:href="#4"/><use xlink:href="#5" y="2.171"/><use xlink:href="#6" y="4.342"/></svg><svg x="3175"><use xlink:href="#a"/><use xlink:href="#b" x="25.996" y="4.317"/><use xlink:href="#4"/><use xlink:href="#5" y="2.171"/><text y="6.012" class="f">[sugarcube-project]$</text><text x="21.042" y="6.012" class="f">npm</text><text x="25.05" y="6.012" class="f">-</text></svg><svg x="3302"><use xlink:href="#a"/><use xlink:href="#b" x="26.996" y="4.317"/><use xlink:href="#4"/><use xlink:href="#5" y="2.171"/><text y="6.012" class="f">[sugarcube-project]$</text><text x="21.042" y="6.012" class="f">npm</text><text x="25.05" y="6.012" class="f">--</text></svg><svg x="3429"><use xlink:href="#a"/><use xlink:href="#b" x="27.996" y="4.317"/><use xlink:href="#4"/><use xlink:href="#5" y="2.171"/><text y="6.012" class="f">[sugarcube-project]$</text><text x="21.042" y="6.012" class="f">npm</text><text x="25.05" y="6.012" class="f">--v</text></svg><svg x="3556"><use xlink:href="#a"/><use xlink:href="#b" x="28.996" y="4.317"/><use xlink:href="#4"/><use xlink:href="#5" y="2.171"/><text y="6.012" class="f">[sugarcube-project]$</text><text x="21.042" y="6.012" class="f">npm</text><text x="25.05" y="6.012" class="f">--ve</text></svg><svg x="3683"><use xlink:href="#a"/><use xlink:href="#b" x="29.996" y="4.317"/><use xlink:href="#4"/><use xlink:href="#5" y="2.171"/><text y="6.012" class="f">[sugarcube-project]$</text><text x="21.042" y="6.012" class="f">npm</text><text x="25.05" y="6.012" class="f">--ver</text></svg><svg x="3810"><use xlink:href="#a"/><use xlink:href="#b" x="30.996" y="4.317"/><use xlink:href="#4"/><use xlink:href="#5" y="2.171"/><text y="6.012" class="f">[sugarcube-project]$</text><text x="21.042" y="6.012" class="f">npm</text><text x="25.05" y="6.012" class="f">--vers</text></svg><svg x="3937"><use xlink:href="#a"/><use xlink:href="#b" x="31.996" y="4.317"/><use xlink:href="#4"/><use xlink:href="#5" y="2.171"/><text y="6.012" class="f">[sugarcube-project]$</text><text x="21.042" y="6.012" class="f">npm</text><text x="25.05" y="6.012" class="f">--versi</text></svg><svg x="4064"><use xlink:href="#a"/><use xlink:href="#b" x="32.996" y="4.317"/><use xlink:href="#4"/><use xlink:href="#5" y="2.171"/><text y="6.012" class="f">[sugarcube-project]$</text><text x="21.042" y="6.012" class="f">npm</text><text x="25.05" y="6.012" class="f">--versio</text></svg><svg x="4191"><use xlink:href="#a"/><use xlink:href="#b" x="33.996" y="4.317"/><use xlink:href="#4"/><use xlink:href="#5" y="2.171"/><use xlink:href="#7" y="4.342"/></svg><svg x="4318"><use xlink:href="#a"/><use xlink:href="#b" x="-.004" y="6.488"/><use xlink:href="#4"/><use xlink:href="#5" y="2.171"/><use xlink:href="#7" y="4.342"/></svg><svg x="4445"><use xlink:href="#a"/><use xlink:href="#b" x="-.004" y="8.659"/><use xlink:href="#4"/><use xlink:href="#5" y="2.171"/><use xlink:href="#7" y="4.342"/><use xlink:href="#8" y="6.513"/></svg><svg x="4572"><use xlink:href="#a"/><use xlink:href="#b" x="-.004" y="8.659"/><use xlink:href="#4"/><use xlink:href="#5" y="2.171"/><use xlink:href="#7" y="4.342"/><use xlink:href="#8" y="6.513"/></svg><svg x="4699"><use xlink:href="#a"/><use xlink:href="#b" x="20.996" y="8.659"/><use xlink:href="#4"/><use xlink:href="#5" y="2.171"/><use xlink:href="#7" y="4.342"/><use xlink:href="#8" y="6.513"/><use xlink:href="#1" y="8.684"/></svg><svg x="4826"><use xlink:href="#a"/><use xlink:href="#b" x="-.004" y="10.83"/><use xlink:href="#4"/><use xlink:href="#5" y="2.171"/><use xlink:href="#7" y="4.342"/><use xlink:href="#8" y="6.513"/><text y="10.354" class="f">[sugarcube-project]$</text><text x="21.042" y="10.354" class="f">exit</text></svg></svg></g></g></svg></svg>