<svg xmlns="http://www.w3.org/2000/svg" xmlns:xlink="http://www.w3.org/1999/xlink" width="1460" height="798.14"><rect width="1460" height="798.14" rx="5" ry="5" class="a"/><svg y="0%" x="0%"><circle cx="20" cy="20" r="6" fill="#ff5f58"/><circle cx="40" cy="20" r="6" fill="#ffbd2e"/><circle cx="60" cy="20" r="6" fill="#18c132"/></svg><svg height="738.14" viewBox="0 0 142 73.814" width="1420" x="15" xmlns="http://www.w3.org/2000/svg" xmlns:xlink="http://www.w3.org/1999/xlink" y="50"><style>@keyframes i{0%{transform:translateX(0)}.1%{transform:translateX(-284px)}12.5%{transform:translateX(-426px)}15%{transform:translateX(-568px)}18.4%{transform:translateX(-710px)}20.8%{transform:translateX(-852px)}22%{transform:translateX(-994px)}26.4%{transform:translateX(-1136px)}27.8%{transform:translateX(-1278px)}29.7%{transform:translateX(-1420px)}31.8%{transform:translateX(-1562px)}32.5%{transform:translateX(-1704px)}34.6%{transform:translateX(-1846px)}36%{transform:translateX(-1988px)}37.7%{transform:translateX(-2130px)}40.7%{transform:translateX(-2272px)}47.2%{transform:translateX(-2840px)}58.3%{transform:translateX(-2982px)}59.8%{transform:translateX(-3124px)}63%{transform:translateX(-3266px)}63.8%{transform:translateX(-3408px)}66.5%{transform:translateX(-3550px)}68.2%{transform:translateX(-3692px)}70.6%{transform:translateX(-3834px)}73%{transform:translateX(-3976px)}73.9%{transform:translateX(-4118px)}76.3%{transform:translateX(-4260px)}77.6%{transform:translateX(-4402px)}79.5%{transform:translateX(-4544px)}80.6%{transform:translateX(-4686px)}85.1%{transform:translateX(-4828px)}86.4%{transform:translateX(-5112px)}to{transform:translateX(-5254px)}}.a{fill:#282d35}.f{fill:#b9c0cb;white-space:pre}</style><g font-family="Monaco,Consolas,Menlo,'Bitstream Vera Sans Mono','Powerline Symbols',monospace" font-size="1.67"><defs><symbol id="1"><text y="1.67" class="f">[sugarcube-project]$</text></symbol><symbol id="2"><text y="1.67" class="f">[sugarcube-project]$</text><text x="21.042" y="1.67" class="f">n</text></symbol><symbol id="3"><text y="1.67" class="f">[sugarcube-project]$</text><text x="21.042" y="1.67" class="f">node</text></symbol><symbol id="4"><text y="1.67" class="f">[sugarcube-project]$</text><text x="21.042" y="1.67" class="f">node</text><text x="26.052" y="1.67" class="f">--version</text></symbol><symbol id="5"><text y="1.67" class="f">v10.15.2</text></symbol><symbol id="6"><text y="1.67" class="f">[sugarcube-project]$</text><text x="21.042" y="1.67" class="f">npm</text></symbol><symbol id="7"><text y="1.67" class="f">[sugarcube-project]$</text><text x="21.042" y="1.67" class="f">npm</text><text x="25.05" y="1.67" class="f">--version</text></symbol><symbol id="8"><text y="1.67" class="f">6.13.0</text></symbol><symbol id="a"><path fill="transparent" d="M0 0h142v34H0z"/></symbol><symbol id="b"><path fill="#6f7683" d="M0 0h1.102v2.171H0z"/></symbol></defs><path class="a" d="M0 0h142v73.814H0z"/><g style="animation-duration:11.573327s;animation-iteration-count:infinite;animation-name:i;animation-timing-function:steps(1,end)"><svg width="5396"><svg><use xlink:href="#a"/><use xlink:href="#b" x="-.004"/></svg><svg x="142"><use xlink:href="#a"/><use xlink:href="#b" x="-.004"/></svg><svg x="284"><use xlink:href="#a"/><use xlink:href="#b" x="20.996"/><use xlink:href="#1"/></svg><svg x="426"><use xlink:href="#a"/><use xlink:href="#b" x="21.996"/><use xlink:href="#2"/></svg><svg x="568"><use xlink:href="#a"/><use xlink:href="#b" x="22.996"/><text y="1.67" class="f">[sugarcube-project]$</text><text x="21.042" y="1.67" class="f">no</text></svg><svg x="710"><use xlink:href="#a"/><use xlink:href="#b" x="23.996"/><text y="1.67" class="f">[sugarcube-project]$</text><text x="21.042" y="1.67" class="f">nod</text></svg><svg x="852"><use xlink:href="#a"/><use xlink:href="#b" x="24.996"/><use xlink:href="#3"/></svg><svg x="994"><use xlink:href="#a"/><use xlink:href="#b" x="25.996"/><use xlink:href="#3"/></svg><svg x="1136"><use xlink:href="#a"/><use xlink:href="#b" x="26.996"/><text y="1.67" class="f">[sugarcube-project]$</text><text x="21.042" y="1.67" class="f">node</text><text x="26.052" y="1.67" class="f">-</text></svg><svg x="1278"><use xlink:href="#a"/><use xlink:href="#b" x="27.996"/><text y="1.67" class="f">[sugarcube-project]$</text><text x="21.042" y="1.67" class="f">node</text><text x="26.052" y="1.67" class="f">--</text></svg><svg x="1420"><use xlink:href="#a"/><use xlink:href="#b" x="28.996"/><text y="1.67" class="f">[sugarcube-project]$</text><text x="21.042" y="1.67" class="f">node</text><text x="26.052" y="1.67" class="f">--v</text></svg><svg x="1562"><use xlink:href="#a"/><use xlink:href="#b" x="29.996"/><text y="1.67" class="f">[sugarcube-project]$</text><text x="21.042" y="1.67" class="f">node</text><text x="26.052" y="1.67" class="f">--ve</text></svg><svg x="1704"><use xlink:href="#a"/><use xlink:href="#b" x="30.996"/><text y="1.67" class="f">[sugarcube-project]$</text><text x="21.042" y="1.67" class="f">node</text><text x="26.052" y="1.67" class="f">--ver</text></svg><svg x="1846"><use xlink:href="#a"/><use xlink:href="#b" x="31.996"/><text y="1.67" class="f">[sugarcube-project]$</text><text x="21.042" y="1.67" class="f">node</text><text x="26.052" y="1.67" class="f">--vers</text></svg><svg x="1988"><use xlink:href="#a"/><use xlink:href="#b" x="32.996"/><text y="1.67" class="f">[sugarcube-project]$</text><text x="21.042" y="1.67" class="f">node</text><text x="26.052" y="1.67" class="f">--versi</text></svg><svg x="2130"><use xlink:href="#a"/><use xlink:href="#b" x="33.996"/><text y="1.67" class="f">[sugarcube-project]$</text><text x="21.042" y="1.67" class="f">node</text><text x="26.052" y="1.67" class="f">--versio</text></svg><svg x="2272"><use xlink:href="#a"/><use xlink:href="#b" x="34.996"/><use xlink:href="#4"/></svg><svg x="2414"><use xlink:href="#a"/><use xlink:href="#b" x="-.004" y="2.146"/><use xlink:href="#4"/></svg><svg x="2556"><use xlink:href="#a"/><use xlink:href="#b" x="-.004" y="4.317"/><use xlink:href="#4"/><use xlink:href="#5" y="2.171"/></svg><svg x="2698"><use xlink:href="#a"/><use xlink:href="#b" x="-.004" y="4.317"/><use xlink:href="#4"/><use xlink:href="#5" y="2.171"/></svg><svg x="2840"><use xlink:href="#a"/><use xlink:href="#b" x="20.996" y="4.317"/><use xlink:href="#4"/><use xlink:href="#5" y="2.171"/><use xlink:href="#1" y="4.342"/></svg><svg x="2982"><use xlink:href="#a"/><use xlink:href="#b" x="21.996" y="4.317"/><use xlink:href="#4"/><use xlink:href="#5" y="2.171"/><use xlink:href="#2" y="4.342"/></svg><svg x="3124"><use xlink:href="#a"/><use xlink:href="#b" x="22.996" y="4.317"/><use xlink:href="#4"/><use xlink:href="#5" y="2.171"/><text y="6.012" class="f">[sugarcube-project]$</text><text x="21.042" y="6.012" class="f">np</text></svg><svg x="3266"><use xlink:href="#a"/><use xlink:href="#b" x="23.996" y="4.317"/><use xlink:href="#4"/><use xlink:href="#5" y="2.171"/><use xlink:href="#6" y="4.342"/></svg><svg x="3408"><use xlink:href="#a"/><use xlink:href="#b" x="24.996" y="4.317"/><use xlink:href="#4"/><use xlink:href="#5" y="2.171"/><use xlink:href="#6" y="4.342"/></svg><svg x="3550"><use xlink:href="#a"/><use xlink:href="#b" x="25.996" y="4.317"/><use xlink:href="#4"/><use xlink:href="#5" y="2.171"/><text y="6.012" class="f">[sugarcube-project]$</text><text x="21.042" y="6.012" class="f">npm</text><text x="25.05" y="6.012" class="f">-</text></svg><svg x="3692"><use xlink:href="#a"/><use xlink:href="#b" x="26.996" y="4.317"/><use xlink:href="#4"/><use xlink:href="#5" y="2.171"/><text y="6.012" class="f">[sugarcube-project]$</text><text x="21.042" y="6.012" class="f">npm</text><text x="25.05" y="6.012" class="f">--</text></svg><svg x="3834"><use xlink:href="#a"/><use xlink:href="#b" x="27.996" y="4.317"/><use xlink:href="#4"/><use xlink:href="#5" y="2.171"/><text y="6.012" class="f">[sugarcube-project]$</text><text x="21.042" y="6.012" class="f">npm</text><text x="25.05" y="6.012" class="f">--v</text></svg><svg x="3976"><use xlink:href="#a"/><use xlink:href="#b" x="28.996" y="4.317"/><use xlink:href="#4"/><use xlink:href="#5" y="2.171"/><text y="6.012" class="f">[sugarcube-project]$</text><text x="21.042" y="6.012" class="f">npm</text><text x="25.05" y="6.012" class="f">--ve</text></svg><svg x="4118"><use xlink:href="#a"/><use xlink:href="#b" x="29.996" y="4.317"/><use xlink:href="#4"/><use xlink:href="#5" y="2.171"/><text y="6.012" class="f">[sugarcube-project]$</text><text x="21.042" y="6.012" class="f">npm</text><text x="25.05" y="6.012" class="f">--ver</text></svg><svg x="4260"><use xlink:href="#a"/><use xlink:href="#b" x="30.996" y="4.317"/><use xlink:href="#4"/><use xlink:href="#5" y="2.171"/><text y="6.012" class="f">[sugarcube-project]$</text><text x="21.042" y="6.012" class="f">npm</text><text x="25.05" y="6.012" class="f">--vers</text></svg><svg x="4402"><use xlink:href="#a"/><use xlink:href="#b" x="31.996" y="4.317"/><use xlink:href="#4"/><use xlink:href="#5" y="2.171"/><text y="6.012" class="f">[sugarcube-project]$</text><text x="21.042" y="6.012" class="f">npm</text><text x="25.05" y="6.012" class="f">--versi</text></svg><svg x="4544"><use xlink:href="#a"/><use xlink:href="#b" x="32.996" y="4.317"/><use xlink:href="#4"/><use xlink:href="#5" y="2.171"/><text y="6.012" class="f">[sugarcube-project]$</text><text x="21.042" y="6.012" class="f">npm</text><text x="25.05" y="6.012" class="f">--versio</text></svg><svg x="4686"><use xlink:href="#a"/><use xlink:href="#b" x="33.996" y="4.317"/><use xlink:href="#4"/><use xlink:href="#5" y="2.171"/><use xlink:href="#7" y="4.342"/></svg><svg x="4828"><use xlink:href="#a"/><use xlink:href="#b" x="-.004" y="6.488"/><use xlink:href="#4"/><use xlink:href="#5" y="2.171"/><use xlink:href="#7" y="4.342"/></svg><svg x="4970"><use xlink:href="#a"/><use xlink:href="#b" x="-.004" y="8.659"/><use xlink:href="#4"/><use xlink:href="#5" y="2.171"/><use xlink:href="#7" y="4.342"/><use xlink:href="#8" y="6.513"/></svg><svg x="5112"><use xlink:href="#a"/><use xlink:href="#b" x="20.996" y="8.659"/><use xlink:href="#4"/><use xlink:href="#5" y="2.171"/><use xlink:href="#7" y="4.342"/><use xlink:href="#8" y="6.513"/><use xlink:href="#1" y="8.684"/></svg><svg x="5254"><use xlink:href="#a"/><use xlink:href="#b" x="-.004" y="10.83"/><use xlink:href="#4"/><use xlink:href="#5" y="2.171"/><use xlink:href="#7" y="4.342"/><use xlink:href="#8" y="6.513"/><text y="10.354" class="f">[sugarcube-project]$</text><text x="21.042" y="10.354" class="f">exit</text></svg></svg></g></g></svg></svg>