<svg xmlns="http://www.w3.org/2000/svg" xmlns:xlink="http://www.w3.org/1999/xlink" width="1310" height="798.14"><rect width="1310" height="798.14" rx="5" ry="5" class="a"/><svg y="0%" x="0%"><circle cx="20" cy="20" r="6" fill="#ff5f58"/><circle cx="40" cy="20" r="6" fill="#ffbd2e"/><circle cx="60" cy="20" r="6" fill="#18c132"/></svg><svg height="738.14" viewBox="0 0 127 73.814" width="1270" x="15" xmlns="http://www.w3.org/2000/svg" xmlns:xlink="http://www.w3.org/1999/xlink" y="50"><style>@keyframes i{0%{transform:translateX(0)}.2%{transform:translateX(-254px)}21.5%{transform:translateX(-381px)}23.5%{transform:translateX(-508px)}26.9%{transform:translateX(-635px)}28.6%{transform:translateX(-762px)}32%{transform:translateX(-889px)}35.7%{transform:translateX(-1016px)}39.5%{transform:translateX(-1143px)}42.3%{transform:translateX(-1270px)}43.6%{transform:translateX(-1397px)}45.8%{transform:translateX(-1524px)}49.4%{transform:translateX(-1651px)}58.1%{transform:translateX(-1778px)}60.9%{transform:translateX(-2032px)}73.5%{transform:translateX(-2159px)}74.6%{transform:translateX(-2286px)}80.3%{transform:translateX(-2794px)}to{transform:translateX(-2921px)}}.a{fill:#282d35}.f{fill:#b9c0cb;white-space:pre}</style><g font-family="Monaco,Consolas,Menlo,'Bitstream Vera Sans Mono','Powerline Symbols',monospace" font-size="1.67"><defs><symbol id="11"><text x="2.004" y="1.67" class="f">&quot;scripts&quot;:</text><text x="13.026" y="1.67" class="f">{</text></symbol><symbol id="1"><text y="1.67" class="f">[sugarcube-project]$</text></symbol><symbol id="3"><text y="1.67" class="f">[sugarcube-project]$</text><text x="21.042" y="1.67" class="f">npm</text><text x="25.05" y="1.67" class="f">init</text></symbol><symbol id="4"><text y="1.67" class="f">[sugarcube-project]$</text><text x="21.042" y="1.67" class="f">npm</text><text x="25.05" y="1.67" class="f">init</text><text x="30.06" y="1.67" class="f">-y</text></symbol><symbol id="5"><text y="1.67" class="f">Wrote</text><text x="6.012" y="1.67" class="f">to</text><text x="9.018" y="1.67" class="f">/home/crito/sugarcube-project/package.json:</text></symbol><symbol id="6"><text y="1.67" class="f">{</text></symbol><symbol id="7"><text x="2.004" y="1.67" class="f">&quot;name&quot;:</text><text x="10.02" y="1.67" class="f">&quot;sugarcube-project&quot;,</text></symbol><symbol id="8"><text x="2.004" y="1.67" class="f">&quot;version&quot;:</text><text x="13.026" y="1.67" class="f">&quot;1.0.0&quot;,</text></symbol><symbol id="9"><text x="2.004" y="1.67" class="f">&quot;description&quot;:</text><text x="17.034" y="1.67" class="f">&quot;&quot;,</text></symbol><symbol id="10"><text x="2.004" y="1.67" class="f">&quot;main&quot;:</text><text x="10.02" y="1.67" class="f">&quot;index.js&quot;,</text></symbol><symbol id="2"><text y="1.67" class="f">[sugarcube-project]$</text><text x="21.042" y="1.67" class="f">npm</text></symbol><symbol id="12"><text x="4.008" y="1.67" class="f">&quot;test&quot;:</text><text x="12.024" y="1.67" class="f">&quot;echo</text><text x="18.036" y="1.67" class="f">\&quot;Error:</text><text x="27.054" y="1.67" class="f">no</text><text x="30.06" y="1.67" class="f">test</text><text x="35.07" y="1.67" class="f">specified\&quot;</text><text x="47.094" y="1.67" class="f">&amp;&amp;</text><text x="50.1" y="1.67" class="f">exit</text><text x="55.11" y="1.67" class="f">1&quot;</text></symbol><symbol id="13"><text x="2.004" y="1.67" class="f">},</text></symbol><symbol id="14"><text x="2.004" y="1.67" class="f">&quot;keywords&quot;:</text><text x="14.028" y="1.67" class="f">[],</text></symbol><symbol id="15"><text x="2.004" y="1.67" class="f">&quot;author&quot;:</text><text x="12.024" y="1.67" class="f">&quot;&quot;,</text></symbol><symbol id="16"><text x="2.004" y="1.67" class="f">&quot;license&quot;:</text><text x="13.026" y="1.67" class="f">&quot;ISC&quot;</text></symbol><symbol id="17"><text y="1.67" class="f">}</text></symbol><symbol id="18"><text y="1.67" class="f">[sugarcube-project]$</text><text x="21.042" y="1.67" class="f">ls</text></symbol><symbol id="19"><text y="1.67" class="f">package.json</text></symbol><symbol id="a"><path fill="transparent" d="M0 0h127v34H0z"/></symbol><symbol id="b"><path fill="#6f7683" d="M0 0h1.102v2.171H0z"/></symbol></defs><path class="a" d="M0 0h127v73.814H0z"/><g style="animation-duration:7.201802s;animation-iteration-count:infinite;animation-name:i;animation-timing-function:steps(1,end)"><svg width="3048"><svg><use xlink:href="#a"/><use xlink:href="#b" x="-.004"/></svg><svg x="127"><use xlink:href="#a"/><use xlink:href="#b" x="-.004"/></svg><svg x="254"><use xlink:href="#a"/><use xlink:href="#b" x="20.996"/><use xlink:href="#1"/></svg><svg x="381"><use xlink:href="#a"/><use xlink:href="#b" x="21.996"/><text y="1.67" class="f">[sugarcube-project]$</text><text x="21.042" y="1.67" class="f">n</text></svg><svg x="508"><use xlink:href="#a"/><use xlink:href="#b" x="22.996"/><text y="1.67" class="f">[sugarcube-project]$</text><text x="21.042" y="1.67" class="f">np</text></svg><svg x="635"><use xlink:href="#a"/><use xlink:href="#b" x="23.996"/><use xlink:href="#2"/></svg><svg x="762"><use xlink:href="#a"/><use xlink:href="#b" x="24.996"/><use xlink:href="#2"/></svg><svg x="889"><use xlink:href="#a"/><use xlink:href="#b" x="25.996"/><text y="1.67" class="f">[sugarcube-project]$</text><text x="21.042" y="1.67" class="f">npm</text><text x="25.05" y="1.67" class="f">i</text></svg><svg x="1016"><use xlink:href="#a"/><use xlink:href="#b" x="26.996"/><text y="1.67" class="f">[sugarcube-project]$</text><text x="21.042" y="1.67" class="f">npm</text><text x="25.05" y="1.67" class="f">in</text></svg><svg x="1143"><use xlink:href="#a"/><use xlink:href="#b" x="27.996"/><text y="1.67" class="f">[sugarcube-project]$</text><text x="21.042" y="1.67" class="f">npm</text><text x="25.05" y="1.67" class="f">ini</text></svg><svg x="1270"><use xlink:href="#a"/><use xlink:href="#b" x="28.996"/><use xlink:href="#3"/></svg><svg x="1397"><use xlink:href="#a"/><use xlink:href="#b" x="29.996"/><use xlink:href="#3"/></svg><svg x="1524"><use xlink:href="#a"/><use xlink:href="#b" x="30.996"/><text y="1.67" class="f">[sugarcube-project]$</text><text x="21.042" y="1.67" class="f">npm</text><text x="25.05" y="1.67" class="f">init</text><text x="30.06" y="1.67" class="f">-</text></svg><svg x="1651"><use xlink:href="#a"/><use xlink:href="#b" x="31.996"/><use xlink:href="#4"/></svg><svg x="1778"><use xlink:href="#a"/><use xlink:href="#b" x="-.004" y="2.146"/><use xlink:href="#4"/></svg><svg x="1905"><use xlink:href="#a"/><use xlink:href="#b" x="-.004" y="36.882"/><use xlink:href="#4"/><use xlink:href="#5" y="2.171"/><use xlink:href="#6" y="6.513"/><use xlink:href="#7" y="8.684"/><use xlink:href="#8" y="10.855"/><use xlink:href="#9" y="13.026"/><use xlink:href="#10" y="15.197"/><use xlink:href="#11" y="17.368"/><use xlink:href="#12" y="19.539"/><use xlink:href="#13" y="21.71"/><use xlink:href="#14" y="23.881"/><use xlink:href="#15" y="26.052"/><use xlink:href="#16" y="28.223"/><use xlink:href="#17" y="30.394"/></svg><svg x="2032"><use xlink:href="#a"/><use xlink:href="#b" x="20.996" y="36.882"/><use xlink:href="#4"/><use xlink:href="#5" y="2.171"/><use xlink:href="#6" y="6.513"/><use xlink:href="#7" y="8.684"/><use xlink:href="#8" y="10.855"/><use xlink:href="#9" y="13.026"/><use xlink:href="#10" y="15.197"/><use xlink:href="#11" y="17.368"/><use xlink:href="#12" y="19.539"/><use xlink:href="#13" y="21.71"/><use xlink:href="#14" y="23.881"/><use xlink:href="#15" y="26.052"/><use xlink:href="#16" y="28.223"/><use xlink:href="#17" y="30.394"/><use xlink:href="#1" y="36.907"/></svg><svg x="2159"><use xlink:href="#a"/><use xlink:href="#b" x="21.996" y="36.882"/><use xlink:href="#4"/><use xlink:href="#5" y="2.171"/><use xlink:href="#6" y="6.513"/><use xlink:href="#7" y="8.684"/><use xlink:href="#8" y="10.855"/><use xlink:href="#9" y="13.026"/><use xlink:href="#10" y="15.197"/><use xlink:href="#11" y="17.368"/><use xlink:href="#12" y="19.539"/><use xlink:href="#13" y="21.71"/><use xlink:href="#14" y="23.881"/><use xlink:href="#15" y="26.052"/><use xlink:href="#16" y="28.223"/><use xlink:href="#17" y="30.394"/><text y="38.577" class="f">[sugarcube-project]$</text><text x="21.042" y="38.577" class="f">l</text></svg><svg x="2286"><use xlink:href="#a"/><use xlink:href="#b" x="22.996" y="36.882"/><use xlink:href="#4"/><use xlink:href="#5" y="2.171"/><use xlink:href="#6" y="6.513"/><use xlink:href="#7" y="8.684"/><use xlink:href="#8" y="10.855"/><use xlink:href="#9" y="13.026"/><use xlink:href="#10" y="15.197"/><use xlink:href="#11" y="17.368"/><use xlink:href="#12" y="19.539"/><use xlink:href="#13" y="21.71"/><use xlink:href="#14" y="23.881"/><use xlink:href="#15" y="26.052"/><use xlink:href="#16" y="28.223"/><use xlink:href="#17" y="30.394"/><use xlink:href="#18" y="36.907"/></svg><svg x="2413"><use xlink:href="#a"/><use xlink:href="#b" x="-.004" y="39.053"/><use xlink:href="#4"/><use xlink:href="#5" y="2.171"/><use xlink:href="#6" y="6.513"/><use xlink:href="#7" y="8.684"/><use xlink:href="#8" y="10.855"/><use xlink:href="#9" y="13.026"/><use xlink:href="#10" y="15.197"/><use xlink:href="#11" y="17.368"/><use xlink:href="#12" y="19.539"/><use xlink:href="#13" y="21.71"/><use xlink:href="#14" y="23.881"/><use xlink:href="#15" y="26.052"/><use xlink:href="#16" y="28.223"/><use xlink:href="#17" y="30.394"/><use xlink:href="#18" y="36.907"/></svg><svg x="2540"><use xlink:href="#a"/><use xlink:href="#b" x="-.004" y="41.224"/><use xlink:href="#4"/><use xlink:href="#5" y="2.171"/><use xlink:href="#6" y="6.513"/><use xlink:href="#7" y="8.684"/><use xlink:href="#8" y="10.855"/><use xlink:href="#9" y="13.026"/><use xlink:href="#10" y="15.197"/><use xlink:href="#11" y="17.368"/><use xlink:href="#12" y="19.539"/><use xlink:href="#13" y="21.71"/><use xlink:href="#14" y="23.881"/><use xlink:href="#15" y="26.052"/><use xlink:href="#16" y="28.223"/><use xlink:href="#17" y="30.394"/><use xlink:href="#18" y="36.907"/><use xlink:href="#19" y="39.078"/></svg><svg x="2667"><use xlink:href="#a"/><use xlink:href="#b" x="-.004" y="41.224"/><use xlink:href="#4"/><use xlink:href="#5" y="2.171"/><use xlink:href="#6" y="6.513"/><use xlink:href="#7" y="8.684"/><use xlink:href="#8" y="10.855"/><use xlink:href="#9" y="13.026"/><use xlink:href="#10" y="15.197"/><use xlink:href="#11" y="17.368"/><use xlink:href="#12" y="19.539"/><use xlink:href="#13" y="21.71"/><use xlink:href="#14" y="23.881"/><use xlink:href="#15" y="26.052"/><use xlink:href="#16" y="28.223"/><use xlink:href="#17" y="30.394"/><use xlink:href="#18" y="36.907"/><use xlink:href="#19" y="39.078"/></svg><svg x="2794"><use xlink:href="#a"/><use xlink:href="#b" x="20.996" y="41.224"/><use xlink:href="#4"/><use xlink:href="#5" y="2.171"/><use xlink:href="#6" y="6.513"/><use xlink:href="#7" y="8.684"/><use xlink:href="#8" y="10.855"/><use xlink:href="#9" y="13.026"/><use xlink:href="#10" y="15.197"/><use xlink:href="#11" y="17.368"/><use xlink:href="#12" y="19.539"/><use xlink:href="#13" y="21.71"/><use xlink:href="#14" y="23.881"/><use xlink:href="#15" y="26.052"/><use xlink:href="#16" y="28.223"/><use xlink:href="#17" y="30.394"/><use xlink:href="#18" y="36.907"/><use xlink:href="#19" y="39.078"/><use xlink:href="#1" y="41.249"/></svg><svg x="2921"><use xlink:href="#a"/><use xlink:href="#b" x="-.004" y="43.395"/><use xlink:href="#4"/><use xlink:href="#5" y="2.171"/><use xlink:href="#6" y="6.513"/><use xlink:href="#7" y="8.684"/><use xlink:href="#8" y="10.855"/><use xlink:href="#9" y="13.026"/><use xlink:href="#10" y="15.197"/><use xlink:href="#11" y="17.368"/><use xlink:href="#12" y="19.539"/><use xlink:href="#13" y="21.71"/><use xlink:href="#14" y="23.881"/><use xlink:href="#15" y="26.052"/><use xlink:href="#16" y="28.223"/><use xlink:href="#17" y="30.394"/><use xlink:href="#18" y="36.907"/><use xlink:href="#19" y="39.078"/><text y="42.919" class="f">[sugarcube-project]$</text><text x="21.042" y="42.919" class="f">exit</text></svg></svg></g></g></svg></svg>