<svg xmlns="http://www.w3.org/2000/svg" xmlns:xlink="http://www.w3.org/1999/xlink" width="1310" height="798.14"><rect width="1310" height="798.14" rx="5" ry="5" class="a"/><svg y="0%" x="0%"><circle cx="20" cy="20" r="6" fill="#ff5f58"/><circle cx="40" cy="20" r="6" fill="#ffbd2e"/><circle cx="60" cy="20" r="6" fill="#18c132"/></svg><svg height="738.14" viewBox="0 0 127 73.814" width="1270" x="15" xmlns="http://www.w3.org/2000/svg" xmlns:xlink="http://www.w3.org/1999/xlink" y="50"><style>@keyframes i{0%{transform:translateX(0)}.1%{transform:translateX(-254px)}7.7%{transform:translateX(-381px)}9.2%{transform:translateX(-508px)}10.8%{transform:translateX(-635px)}12.2%{transform:translateX(-762px)}12.8%{transform:translateX(-889px)}13.7%{transform:translateX(-1016px)}16.4%{transform:translateX(-1143px)}17.2%{transform:translateX(-1270px)}18.8%{transform:translateX(-1397px)}19.4%{transform:translateX(-1524px)}21%{transform:translateX(-1651px)}22.6%{transform:translateX(-1778px)}23.6%{transform:translateX(-1905px)}25.6%{transform:translateX(-2032px)}27.9%{transform:translateX(-2159px)}33.6%{transform:translateX(-2286px)}35.7%{transform:translateX(-2413px)}36.7%{transform:translateX(-2540px)}37.3%{transform:translateX(-2667px)}39.1%{transform:translateX(-2794px)}39.7%{transform:translateX(-2921px)}41%{transform:translateX(-3048px)}42.8%{transform:translateX(-3175px)}48.4%{transform:translateX(-3556px)}52.7%{transform:translateX(-3683px)}53.6%{transform:translateX(-3810px)}54.2%{transform:translateX(-3937px)}57.3%{transform:translateX(-4064px)}58.3%{transform:translateX(-4191px)}59.9%{transform:translateX(-4318px)}60.3%{transform:translateX(-4445px)}61.8%{transform:translateX(-4572px)}63.4%{transform:translateX(-4699px)}64.2%{transform:translateX(-4826px)}65.9%{transform:translateX(-4953px)}67.9%{transform:translateX(-5080px)}70.5%{transform:translateX(-5207px)}74%{transform:translateX(-5334px)}75%{transform:translateX(-5461px)}75.7%{transform:translateX(-5588px)}77.4%{transform:translateX(-5715px)}78.2%{transform:translateX(-5842px)}79.3%{transform:translateX(-5969px)}81.9%{transform:translateX(-6096px)}87.4%{transform:translateX(-6350px)}to{transform:translateX(-6477px)}}.a{fill:#282d35}.f{fill:#b9c0cb;white-space:pre}</style><g font-family="Monaco,Consolas,Menlo,'Bitstream Vera Sans Mono','Powerline Symbols',monospace" font-size="1.67"><defs><symbol id="1"><text y="1.67" class="f">[~]$</text></symbol><symbol id="2"><text y="1.67" class="f">[~]$</text><text x="5.01" y="1.67" class="f">mkdir</text></symbol><symbol id="3"><text y="1.67" class="f">[~]$</text><text x="5.01" y="1.67" class="f">mkdir</text><text x="11.022" y="1.67" class="f">sugarcube-project</text></symbol><symbol id="4"><text y="1.67" class="f">[~]$</text><text x="5.01" y="1.67" class="f">cd</text></symbol><symbol id="5"><text y="1.67" class="f">[~]$</text><text x="5.01" y="1.67" class="f">cd</text><text x="8.016" y="1.67" class="f">sugarcube-project</text></symbol><symbol id="a"><path fill="transparent" d="M0 0h127v34H0z"/></symbol><symbol id="b"><path fill="#6f7683" d="M0 0h1.102v2.171H0z"/></symbol></defs><path class="a" d="M0 0h127v73.814H0z"/><g style="animation-duration:13.18072s;animation-iteration-count:infinite;animation-name:i;animation-timing-function:steps(1,end)"><svg width="6604"><svg><use xlink:href="#a"/><use xlink:href="#b" x="-.004"/></svg><svg x="127"><use xlink:href="#a"/><use xlink:href="#b" x="-.004"/></svg><svg x="254"><use xlink:href="#a"/><use xlink:href="#b" x="4.996"/><use xlink:href="#1"/></svg><svg x="381"><use xlink:href="#a"/><use xlink:href="#b" x="5.996"/><text y="1.67" class="f">[~]$</text><text x="5.01" y="1.67" class="f">m</text></svg><svg x="508"><use xlink:href="#a"/><use xlink:href="#b" x="6.996"/><text y="1.67" class="f">[~]$</text><text x="5.01" y="1.67" class="f">mk</text></svg><svg x="635"><use xlink:href="#a"/><use xlink:href="#b" x="7.996"/><text y="1.67" class="f">[~]$</text><text x="5.01" y="1.67" class="f">mkd</text></svg><svg x="762"><use xlink:href="#a"/><use xlink:href="#b" x="8.996"/><text y="1.67" class="f">[~]$</text><text x="5.01" y="1.67" class="f">mkdi</text></svg><svg x="889"><use xlink:href="#a"/><use xlink:href="#b" x="9.996"/><use xlink:href="#2"/></svg><svg x="1016"><use xlink:href="#a"/><use xlink:href="#b" x="10.996"/><use xlink:href="#2"/></svg><svg x="1143"><use xlink:href="#a"/><use xlink:href="#b" x="11.996"/><text y="1.67" class="f">[~]$</text><text x="5.01" y="1.67" class="f">mkdir</text><text x="11.022" y="1.67" class="f">s</text></svg><svg x="1270"><use xlink:href="#a"/><use xlink:href="#b" x="12.996"/><text y="1.67" class="f">[~]$</text><text x="5.01" y="1.67" class="f">mkdir</text><text x="11.022" y="1.67" class="f">su</text></svg><svg x="1397"><use xlink:href="#a"/><use xlink:href="#b" x="13.996"/><text y="1.67" class="f">[~]$</text><text x="5.01" y="1.67" class="f">mkdir</text><text x="11.022" y="1.67" class="f">sug</text></svg><svg x="1524"><use xlink:href="#a"/><use xlink:href="#b" x="14.996"/><text y="1.67" class="f">[~]$</text><text x="5.01" y="1.67" class="f">mkdir</text><text x="11.022" y="1.67" class="f">suga</text></svg><svg x="1651"><use xlink:href="#a"/><use xlink:href="#b" x="15.996"/><text y="1.67" class="f">[~]$</text><text x="5.01" y="1.67" class="f">mkdir</text><text x="11.022" y="1.67" class="f">sugar</text></svg><svg x="1778"><use xlink:href="#a"/><use xlink:href="#b" x="16.996"/><text y="1.67" class="f">[~]$</text><text x="5.01" y="1.67" class="f">mkdir</text><text x="11.022" y="1.67" class="f">sugarc</text></svg><svg x="1905"><use xlink:href="#a"/><use xlink:href="#b" x="17.996"/><text y="1.67" class="f">[~]$</text><text x="5.01" y="1.67" class="f">mkdir</text><text x="11.022" y="1.67" class="f">sugarcu</text></svg><svg x="2032"><use xlink:href="#a"/><use xlink:href="#b" x="18.996"/><text y="1.67" class="f">[~]$</text><text x="5.01" y="1.67" class="f">mkdir</text><text x="11.022" y="1.67" class="f">sugarcub</text></svg><svg x="2159"><use xlink:href="#a"/><use xlink:href="#b" x="19.996"/><text y="1.67" class="f">[~]$</text><text x="5.01" y="1.67" class="f">mkdir</text><text x="11.022" y="1.67" class="f">sugarcube</text></svg><svg x="2286"><use xlink:href="#a"/><use xlink:href="#b" x="20.996"/><text y="1.67" class="f">[~]$</text><text x="5.01" y="1.67" class="f">mkdir</text><text x="11.022" y="1.67" class="f">sugarcube-</text></svg><svg x="2413"><use xlink:href="#a"/><use xlink:href="#b" x="21.996"/><text y="1.67" class="f">[~]$</text><text x="5.01" y="1.67" class="f">mkdir</text><text x="11.022" y="1.67" class="f">sugarcube-p</text></svg><svg x="2540"><use xlink:href="#a"/><use xlink:href="#b" x="22.996"/><text y="1.67" class="f">[~]$</text><text x="5.01" y="1.67" class="f">mkdir</text><text x="11.022" y="1.67" class="f">sugarcube-pr</text></svg><svg x="2667"><use xlink:href="#a"/><use xlink:href="#b" x="23.996"/><text y="1.67" class="f">[~]$</text><text x="5.01" y="1.67" class="f">mkdir</text><text x="11.022" y="1.67" class="f">sugarcube-pro</text></svg><svg x="2794"><use xlink:href="#a"/><use xlink:href="#b" x="24.996"/><text y="1.67" class="f">[~]$</text><text x="5.01" y="1.67" class="f">mkdir</text><text x="11.022" y="1.67" class="f">sugarcube-proj</text></svg><svg x="2921"><use xlink:href="#a"/><use xlink:href="#b" x="25.996"/><text y="1.67" class="f">[~]$</text><text x="5.01" y="1.67" class="f">mkdir</text><text x="11.022" y="1.67" class="f">sugarcube-proje</text></svg><svg x="3048"><use xlink:href="#a"/><use xlink:href="#b" x="26.996"/><text y="1.67" class="f">[~]$</text><text x="5.01" y="1.67" class="f">mkdir</text><text x="11.022" y="1.67" class="f">sugarcube-projec</text></svg><svg x="3175"><use xlink:href="#a"/><use xlink:href="#b" x="27.996"/><use xlink:href="#3"/></svg><svg x="3302"><use xlink:href="#a"/><use xlink:href="#b" x="-.004" y="2.146"/><use xlink:href="#3"/></svg><svg x="3429"><use xlink:href="#a"/><use xlink:href="#b" x="-.004" y="2.146"/><use xlink:href="#3"/></svg><svg x="3556"><use xlink:href="#a"/><use xlink:href="#b" x="4.996" y="2.146"/><use xlink:href="#3"/><use xlink:href="#1" y="2.171"/></svg><svg x="3683"><use xlink:href="#a"/><use xlink:href="#b" x="5.996" y="2.146"/><use xlink:href="#3"/><text y="3.841" class="f">[~]$</text><text x="5.01" y="3.841" class="f">c</text></svg><svg x="3810"><use xlink:href="#a"/><use xlink:href="#b" x="6.996" y="2.146"/><use xlink:href="#3"/><use xlink:href="#4" y="2.171"/></svg><svg x="3937"><use xlink:href="#a"/><use xlink:href="#b" x="7.996" y="2.146"/><use xlink:href="#3"/><use xlink:href="#4" y="2.171"/></svg><svg x="4064"><use xlink:href="#a"/><use xlink:href="#b" x="8.996" y="2.146"/><use xlink:href="#3"/><text y="3.841" class="f">[~]$</text><text x="5.01" y="3.841" class="f">cd</text><text x="8.016" y="3.841" class="f">s</text></svg><svg x="4191"><use xlink:href="#a"/><use xlink:href="#b" x="9.996" y="2.146"/><use xlink:href="#3"/><text y="3.841" class="f">[~]$</text><text x="5.01" y="3.841" class="f">cd</text><text x="8.016" y="3.841" class="f">su</text></svg><svg x="4318"><use xlink:href="#a"/><use xlink:href="#b" x="10.996" y="2.146"/><use xlink:href="#3"/><text y="3.841" class="f">[~]$</text><text x="5.01" y="3.841" class="f">cd</text><text x="8.016" y="3.841" class="f">sug</text></svg><svg x="4445"><use xlink:href="#a"/><use xlink:href="#b" x="11.996" y="2.146"/><use xlink:href="#3"/><text y="3.841" class="f">[~]$</text><text x="5.01" y="3.841" class="f">cd</text><text x="8.016" y="3.841" class="f">suga</text></svg><svg x="4572"><use xlink:href="#a"/><use xlink:href="#b" x="12.996" y="2.146"/><use xlink:href="#3"/><text y="3.841" class="f">[~]$</text><text x="5.01" y="3.841" class="f">cd</text><text x="8.016" y="3.841" class="f">sugar</text></svg><svg x="4699"><use xlink:href="#a"/><use xlink:href="#b" x="13.996" y="2.146"/><use xlink:href="#3"/><text y="3.841" class="f">[~]$</text><text x="5.01" y="3.841" class="f">cd</text><text x="8.016" y="3.841" class="f">sugarc</text></svg><svg x="4826"><use xlink:href="#a"/><use xlink:href="#b" x="14.996" y="2.146"/><use xlink:href="#3"/><text y="3.841" class="f">[~]$</text><text x="5.01" y="3.841" class="f">cd</text><text x="8.016" y="3.841" class="f">sugarcu</text></svg><svg x="4953"><use xlink:href="#a"/><use xlink:href="#b" x="15.996" y="2.146"/><use xlink:href="#3"/><text y="3.841" class="f">[~]$</text><text x="5.01" y="3.841" class="f">cd</text><text x="8.016" y="3.841" class="f">sugarcub</text></svg><svg x="5080"><use xlink:href="#a"/><use xlink:href="#b" x="16.996" y="2.146"/><use xlink:href="#3"/><text y="3.841" class="f">[~]$</text><text x="5.01" y="3.841" class="f">cd</text><text x="8.016" y="3.841" class="f">sugarcube</text></svg><svg x="5207"><use xlink:href="#a"/><use xlink:href="#b" x="17.996" y="2.146"/><use xlink:href="#3"/><text y="3.841" class="f">[~]$</text><text x="5.01" y="3.841" class="f">cd</text><text x="8.016" y="3.841" class="f">sugarcube-</text></svg><svg x="5334"><use xlink:href="#a"/><use xlink:href="#b" x="18.996" y="2.146"/><use xlink:href="#3"/><text y="3.841" class="f">[~]$</text><text x="5.01" y="3.841" class="f">cd</text><text x="8.016" y="3.841" class="f">sugarcube-p</text></svg><svg x="5461"><use xlink:href="#a"/><use xlink:href="#b" x="19.996" y="2.146"/><use xlink:href="#3"/><text y="3.841" class="f">[~]$</text><text x="5.01" y="3.841" class="f">cd</text><text x="8.016" y="3.841" class="f">sugarcube-pr</text></svg><svg x="5588"><use xlink:href="#a"/><use xlink:href="#b" x="20.996" y="2.146"/><use xlink:href="#3"/><text y="3.841" class="f">[~]$</text><text x="5.01" y="3.841" class="f">cd</text><text x="8.016" y="3.841" class="f">sugarcube-pro</text></svg><svg x="5715"><use xlink:href="#a"/><use xlink:href="#b" x="21.996" y="2.146"/><use xlink:href="#3"/><text y="3.841" class="f">[~]$</text><text x="5.01" y="3.841" class="f">cd</text><text x="8.016" y="3.841" class="f">sugarcube-proj</text></svg><svg x="5842"><use xlink:href="#a"/><use xlink:href="#b" x="22.996" y="2.146"/><use xlink:href="#3"/><text y="3.841" class="f">[~]$</text><text x="5.01" y="3.841" class="f">cd</text><text x="8.016" y="3.841" class="f">sugarcube-proje</text></svg><svg x="5969"><use xlink:href="#a"/><use xlink:href="#b" x="23.996" y="2.146"/><use xlink:href="#3"/><text y="3.841" class="f">[~]$</text><text x="5.01" y="3.841" class="f">cd</text><text x="8.016" y="3.841" class="f">sugarcube-projec</text></svg><svg x="6096"><use xlink:href="#a"/><use xlink:href="#b" x="24.996" y="2.146"/><use xlink:href="#3"/><use xlink:href="#5" y="2.171"/></svg><svg x="6223"><use xlink:href="#a"/><use xlink:href="#b" x="-.004" y="4.317"/><use xlink:href="#3"/><use xlink:href="#5" y="2.171"/></svg><svg x="6350"><use xlink:href="#a"/><use xlink:href="#b" x="20.996" y="4.317"/><use xlink:href="#3"/><use xlink:href="#5" y="2.171"/><text y="6.012" class="f">[sugarcube-project]$</text></svg><svg x="6477"><use xlink:href="#a"/><use xlink:href="#b" x="-.004" y="6.488"/><use xlink:href="#3"/><use xlink:href="#5" y="2.171"/><text y="6.012" class="f">[sugarcube-project]$</text><text x="21.042" y="6.012" class="f">exit</text></svg></svg></g></g></svg></svg>