<svg width="284" height="58" viewBox="0 0 284 58" fill="none" xmlns="http://www.w3.org/2000/svg">
<path d="M74.6091 41.24C73.1291 41.24 71.6991 41.01 70.3191 40.55C68.9591 40.07 67.8891 39.43 67.1091 38.63C66.8491 38.41 66.7191 38.12 66.7191 37.76C66.7191 37.54 66.7791 37.35 66.8991 37.19C67.0391 37.03 67.1891 36.95 67.3491 36.95C67.5491 36.95 67.7791 37.05 68.0391 37.25C69.9191 38.81 72.1091 39.59 74.6091 39.59C76.4291 39.59 77.8291 39.23 78.8091 38.51C79.8091 37.77 80.3091 36.73 80.3091 35.39C80.3091 34.61 80.0691 33.98 79.5891 33.5C79.1091 33.02 78.4991 32.65 77.7591 32.39C77.0191 32.11 76.0291 31.83 74.7891 31.55C73.1491 31.19 71.8191 30.82 70.7991 30.44C69.7991 30.06 68.9491 29.49 68.2491 28.73C67.5491 27.95 67.1991 26.91 67.1991 25.61C67.1991 24.43 67.5091 23.39 68.1291 22.49C68.7691 21.57 69.6591 20.86 70.7991 20.36C71.9391 19.86 73.2491 19.61 74.7291 19.61C76.1091 19.61 77.4091 19.84 78.6291 20.3C79.8491 20.74 80.8591 21.38 81.6591 22.22C81.9191 22.48 82.0491 22.77 82.0491 23.09C82.0491 23.31 81.9791 23.5 81.8391 23.66C81.7191 23.82 81.5791 23.9 81.4191 23.9C81.2191 23.9 80.9891 23.8 80.7291 23.6C79.6491 22.72 78.6691 22.11 77.7891 21.77C76.9291 21.43 75.9091 21.26 74.7291 21.26C72.9491 21.26 71.5591 21.64 70.5591 22.4C69.5591 23.16 69.0591 24.22 69.0591 25.58C69.0591 26.4 69.2791 27.07 69.7191 27.59C70.1591 28.09 70.7291 28.49 71.4291 28.79C72.1491 29.09 73.0691 29.38 74.1891 29.66L74.9691 29.84C76.5891 30.24 77.8691 30.61 78.8091 30.95C79.7491 31.29 80.5391 31.82 81.1791 32.54C81.8391 33.24 82.1691 34.19 82.1691 35.39C82.1691 36.53 81.8491 37.55 81.2091 38.45C80.5891 39.33 79.6991 40.02 78.5391 40.52C77.3991 41 76.0891 41.24 74.6091 41.24ZM96.8518 26.15C97.1318 26.15 97.3518 26.24 97.5118 26.42C97.6918 26.58 97.7818 26.8 97.7818 27.08V40.22C97.7818 40.5 97.6918 40.73 97.5118 40.91C97.3518 41.07 97.1318 41.15 96.8518 41.15C96.5918 41.15 96.3818 41.07 96.2218 40.91C96.0618 40.73 95.9818 40.5 95.9818 40.22V38.39C95.5218 39.31 94.8618 40.01 94.0018 40.49C93.1618 40.97 92.2018 41.21 91.1218 41.21C89.4018 41.21 88.1018 40.74 87.2218 39.8C86.3618 38.84 85.9318 37.43 85.9318 35.57V27.08C85.9318 26.8 86.0118 26.58 86.1718 26.42C86.3518 26.24 86.5818 26.15 86.8618 26.15C87.1418 26.15 87.3618 26.24 87.5218 26.42C87.6818 26.58 87.7618 26.8 87.7618 27.08V35.45C87.7618 36.87 88.0418 37.92 88.6018 38.6C89.1818 39.26 90.0818 39.59 91.3018 39.59C92.7018 39.59 93.8218 39.15 94.6618 38.27C95.5218 37.37 95.9518 36.18 95.9518 34.7V27.08C95.9518 26.8 96.0318 26.58 96.1918 26.42C96.3518 26.24 96.5718 26.15 96.8518 26.15ZM114.154 26.15C114.434 26.15 114.654 26.24 114.814 26.42C114.994 26.58 115.084 26.8 115.084 27.08V40.16C115.084 42.28 114.554 43.88 113.494 44.96C112.454 46.06 110.904 46.61 108.844 46.61C107.764 46.61 106.794 46.5 105.934 46.28C105.094 46.08 104.304 45.76 103.564 45.32C102.844 44.88 102.484 44.45 102.484 44.03C102.484 43.81 102.544 43.63 102.664 43.49C102.804 43.35 102.974 43.28 103.174 43.28C103.294 43.28 103.454 43.33 103.654 43.43C103.874 43.55 104.024 43.63 104.104 43.67C104.784 44.05 105.484 44.36 106.204 44.6C106.924 44.86 107.814 44.99 108.874 44.99C110.334 44.99 111.434 44.6 112.174 43.82C112.914 43.04 113.284 41.88 113.284 40.34V37.49C112.864 38.47 112.214 39.23 111.334 39.77C110.474 40.29 109.424 40.55 108.184 40.55C106.904 40.55 105.764 40.25 104.764 39.65C103.784 39.05 103.014 38.2 102.454 37.1C101.914 36 101.644 34.74 101.644 33.32C101.644 31.9 101.914 30.64 102.454 29.54C103.014 28.44 103.784 27.59 104.764 26.99C105.764 26.39 106.904 26.09 108.184 26.09C109.404 26.09 110.444 26.35 111.304 26.87C112.164 27.37 112.814 28.11 113.254 29.09V27.08C113.254 26.8 113.334 26.58 113.494 26.42C113.654 26.24 113.874 26.15 114.154 26.15ZM108.424 38.93C109.944 38.93 111.124 38.43 111.964 37.43C112.824 36.43 113.254 35.06 113.254 33.32C113.254 31.58 112.824 30.21 111.964 29.21C111.104 28.19 109.924 27.68 108.424 27.68C106.904 27.68 105.714 28.18 104.854 29.18C103.994 30.18 103.564 31.56 103.564 33.32C103.564 35.08 103.994 36.46 104.854 37.46C105.714 38.44 106.904 38.93 108.424 38.93ZM125.648 26.09C127.408 26.09 128.718 26.55 129.578 27.47C130.458 28.39 130.898 29.78 130.898 31.64V40.19C130.898 40.47 130.818 40.7 130.658 40.88C130.498 41.04 130.278 41.12 129.998 41.12C129.718 41.12 129.498 41.04 129.338 40.88C129.178 40.7 129.098 40.47 129.098 40.19V38.39C128.678 39.29 128.068 39.99 127.268 40.49C126.468 40.97 125.548 41.21 124.508 41.21C123.568 41.21 122.708 41.02 121.928 40.64C121.148 40.26 120.528 39.73 120.068 39.05C119.628 38.37 119.408 37.62 119.408 36.8C119.408 35.72 119.688 34.88 120.248 34.28C120.808 33.68 121.738 33.25 123.038 32.99C124.338 32.73 126.148 32.6 128.468 32.6H129.098V31.49C129.098 30.17 128.828 29.21 128.288 28.61C127.748 27.99 126.898 27.68 125.738 27.68C124.258 27.68 122.848 28.07 121.508 28.85C121.448 28.89 121.288 29 121.028 29.18C120.788 29.34 120.578 29.42 120.398 29.42C120.198 29.42 120.028 29.35 119.888 29.21C119.768 29.05 119.708 28.86 119.708 28.64C119.708 28.2 120.058 27.77 120.758 27.35C121.458 26.95 122.238 26.64 123.098 26.42C123.958 26.2 124.808 26.09 125.648 26.09ZM124.658 39.62C125.958 39.62 127.018 39.18 127.838 38.3C128.678 37.42 129.098 36.3 129.098 34.94V33.95H128.528C126.608 33.95 125.138 34.03 124.118 34.19C123.098 34.35 122.378 34.63 121.958 35.03C121.538 35.41 121.328 35.97 121.328 36.71C121.328 37.55 121.648 38.25 122.288 38.81C122.928 39.35 123.718 39.62 124.658 39.62ZM142.459 26.15C142.839 26.13 143.109 26.18 143.269 26.3C143.429 26.42 143.509 26.62 143.509 26.9C143.509 27.4 143.209 27.68 142.609 27.74L141.709 27.83C140.289 27.97 139.229 28.48 138.529 29.36C137.849 30.24 137.509 31.27 137.509 32.45V40.22C137.509 40.52 137.429 40.75 137.269 40.91C137.109 41.07 136.889 41.15 136.609 41.15C136.329 41.15 136.099 41.07 135.919 40.91C135.759 40.75 135.679 40.52 135.679 40.22V27.08C135.679 26.78 135.759 26.55 135.919 26.39C136.099 26.23 136.329 26.15 136.609 26.15C136.869 26.15 137.079 26.23 137.239 26.39C137.399 26.55 137.479 26.77 137.479 27.05V29C138.299 27.28 139.819 26.34 142.039 26.18L142.459 26.15ZM151.372 41.21C150.032 41.21 148.852 40.9 147.832 40.28C146.812 39.66 146.022 38.78 145.462 37.64C144.902 36.5 144.622 35.19 144.622 33.71C144.622 32.21 144.902 30.89 145.462 29.75C146.042 28.59 146.842 27.69 147.862 27.05C148.902 26.41 150.092 26.09 151.432 26.09C152.192 26.09 152.932 26.19 153.652 26.39C154.372 26.59 155.012 26.89 155.572 27.29C155.932 27.55 156.182 27.79 156.322 28.01C156.482 28.21 156.562 28.43 156.562 28.67C156.562 28.89 156.502 29.07 156.382 29.21C156.262 29.35 156.112 29.42 155.932 29.42C155.732 29.42 155.412 29.25 154.972 28.91C154.452 28.53 153.932 28.23 153.412 28.01C152.892 27.79 152.262 27.68 151.522 27.68C149.962 27.68 148.742 28.22 147.862 29.3C146.982 30.36 146.542 31.83 146.542 33.71C146.542 35.57 146.972 37.02 147.832 38.06C148.712 39.08 149.932 39.59 151.492 39.59C152.252 39.59 152.882 39.48 153.382 39.26C153.902 39.04 154.462 38.74 155.062 38.36C155.242 38.24 155.412 38.13 155.572 38.03C155.752 37.93 155.892 37.88 155.992 37.88C156.192 37.88 156.352 37.95 156.472 38.09C156.592 38.23 156.652 38.4 156.652 38.6C156.652 38.84 156.582 39.05 156.442 39.23C156.302 39.41 156.032 39.64 155.632 39.92C155.092 40.32 154.432 40.64 153.652 40.88C152.892 41.1 152.132 41.21 151.372 41.21ZM170.651 26.15C170.931 26.15 171.151 26.24 171.311 26.42C171.491 26.58 171.581 26.8 171.581 27.08V40.22C171.581 40.5 171.491 40.73 171.311 40.91C171.151 41.07 170.931 41.15 170.651 41.15C170.391 41.15 170.181 41.07 170.021 40.91C169.861 40.73 169.781 40.5 169.781 40.22V38.39C169.321 39.31 168.661 40.01 167.801 40.49C166.961 40.97 166.001 41.21 164.921 41.21C163.201 41.21 161.901 40.74 161.021 39.8C160.161 38.84 159.731 37.43 159.731 35.57V27.08C159.731 26.8 159.811 26.58 159.971 26.42C160.151 26.24 160.381 26.15 160.661 26.15C160.941 26.15 161.161 26.24 161.321 26.42C161.481 26.58 161.561 26.8 161.561 27.08V35.45C161.561 36.87 161.841 37.92 162.401 38.6C162.981 39.26 163.881 39.59 165.101 39.59C166.501 39.59 167.621 39.15 168.461 38.27C169.321 37.37 169.751 36.18 169.751 34.7V27.08C169.751 26.8 169.831 26.58 169.991 26.42C170.151 26.24 170.371 26.15 170.651 26.15ZM183.213 26.09C184.493 26.09 185.623 26.4 186.603 27.02C187.583 27.64 188.343 28.52 188.883 29.66C189.423 30.78 189.693 32.09 189.693 33.59C189.693 35.11 189.423 36.45 188.883 37.61C188.343 38.75 187.583 39.64 186.603 40.28C185.623 40.9 184.493 41.21 183.213 41.21C182.033 41.21 181.013 40.96 180.153 40.46C179.293 39.94 178.643 39.19 178.203 38.21V40.19C178.203 40.47 178.123 40.7 177.963 40.88C177.803 41.04 177.583 41.12 177.303 41.12C177.023 41.12 176.793 41.04 176.613 40.88C176.453 40.7 176.373 40.47 176.373 40.19V20.63C176.373 20.35 176.453 20.13 176.613 19.97C176.793 19.79 177.023 19.7 177.303 19.7C177.583 19.7 177.803 19.79 177.963 19.97C178.123 20.13 178.203 20.35 178.203 20.63V29.09C178.643 28.11 179.293 27.37 180.153 26.87C181.013 26.35 182.033 26.09 183.213 26.09ZM182.973 39.59C184.493 39.59 185.673 39.06 186.513 38C187.373 36.94 187.803 35.47 187.803 33.59C187.803 31.71 187.373 30.26 186.513 29.24C185.673 28.2 184.483 27.68 182.943 27.68C181.423 27.68 180.253 28.2 179.433 29.24C178.613 30.28 178.203 31.75 178.203 33.65C178.203 35.55 178.613 37.02 179.433 38.06C180.273 39.08 181.453 39.59 182.973 39.59ZM204.73 37.88C204.91 37.88 205.06 37.96 205.18 38.12C205.32 38.26 205.39 38.43 205.39 38.63C205.39 39.07 205.05 39.5 204.37 39.92C202.93 40.78 201.41 41.21 199.81 41.21C197.59 41.21 195.84 40.54 194.56 39.2C193.28 37.86 192.64 36.02 192.64 33.68C192.64 32.18 192.92 30.86 193.48 29.72C194.06 28.56 194.86 27.67 195.88 27.05C196.92 26.41 198.11 26.09 199.45 26.09C201.33 26.09 202.81 26.7 203.89 27.92C204.99 29.12 205.54 30.78 205.54 32.9C205.54 33.26 205.46 33.53 205.3 33.71C205.14 33.87 204.88 33.95 204.52 33.95H194.53C194.59 35.79 195.07 37.19 195.97 38.15C196.87 39.11 198.14 39.59 199.78 39.59C200.64 39.59 201.36 39.48 201.94 39.26C202.52 39.02 203.14 38.71 203.8 38.33C204.24 38.03 204.55 37.88 204.73 37.88ZM199.45 27.59C198.05 27.59 196.93 28.03 196.09 28.91C195.25 29.79 194.75 31.02 194.59 32.6H203.86C203.82 31 203.42 29.77 202.66 28.91C201.9 28.03 200.83 27.59 199.45 27.59ZM223.37 41.15C223.09 41.15 222.87 41.06 222.71 40.88C222.55 40.7 222.47 40.47 222.47 40.19V21.47H215.54C215.28 21.47 215.07 21.4 214.91 21.26C214.77 21.12 214.7 20.92 214.7 20.66C214.7 20.4 214.77 20.2 214.91 20.06C215.07 19.92 215.28 19.85 215.54 19.85H231.2C231.44 19.85 231.64 19.93 231.8 20.09C231.96 20.23 232.04 20.42 232.04 20.66C232.04 20.9 231.96 21.1 231.8 21.26C231.64 21.4 231.44 21.47 231.2 21.47H224.3V40.19C224.3 40.47 224.21 40.7 224.03 40.88C223.87 41.06 223.65 41.15 223.37 41.15ZM238.149 41.21C236.809 41.21 235.629 40.9 234.609 40.28C233.609 39.66 232.829 38.78 232.269 37.64C231.709 36.5 231.429 35.17 231.429 33.65C231.429 32.13 231.709 30.8 232.269 29.66C232.829 28.52 233.609 27.64 234.609 27.02C235.629 26.4 236.809 26.09 238.149 26.09C239.469 26.09 240.639 26.4 241.659 27.02C242.679 27.64 243.459 28.52 243.999 29.66C244.559 30.8 244.839 32.13 244.839 33.65C244.839 35.17 244.559 36.5 243.999 37.64C243.459 38.78 242.679 39.66 241.659 40.28C240.639 40.9 239.469 41.21 238.149 41.21ZM238.119 39.59C239.659 39.59 240.849 39.08 241.689 38.06C242.529 37.04 242.949 35.57 242.949 33.65C242.949 31.77 242.519 30.31 241.659 29.27C240.819 28.21 239.649 27.68 238.149 27.68C236.629 27.68 235.449 28.21 234.609 29.27C233.769 30.31 233.349 31.77 233.349 33.65C233.349 35.57 233.759 37.04 234.579 38.06C235.399 39.08 236.579 39.59 238.119 39.59ZM254.497 41.21C253.157 41.21 251.977 40.9 250.957 40.28C249.957 39.66 249.177 38.78 248.617 37.64C248.057 36.5 247.777 35.17 247.777 33.65C247.777 32.13 248.057 30.8 248.617 29.66C249.177 28.52 249.957 27.64 250.957 27.02C251.977 26.4 253.157 26.09 254.497 26.09C255.817 26.09 256.987 26.4 258.007 27.02C259.027 27.64 259.807 28.52 260.347 29.66C260.907 30.8 261.187 32.13 261.187 33.65C261.187 35.17 260.907 36.5 260.347 37.64C259.807 38.78 259.027 39.66 258.007 40.28C256.987 40.9 255.817 41.21 254.497 41.21ZM254.467 39.59C256.007 39.59 257.197 39.08 258.037 38.06C258.877 37.04 259.297 35.57 259.297 33.65C259.297 31.77 258.867 30.31 258.007 29.27C257.167 28.21 255.997 27.68 254.497 27.68C252.977 27.68 251.797 28.21 250.957 29.27C250.117 30.31 249.697 31.77 249.697 33.65C249.697 35.57 250.107 37.04 250.927 38.06C251.747 39.08 252.927 39.59 254.467 39.59ZM265.984 41.15C265.704 41.15 265.474 41.07 265.294 40.91C265.134 40.75 265.054 40.52 265.054 40.22V20.63C265.054 20.33 265.134 20.1 265.294 19.94C265.474 19.78 265.704 19.7 265.984 19.7C266.244 19.7 266.454 19.78 266.614 19.94C266.794 20.1 266.884 20.33 266.884 20.63V40.22C266.884 40.52 266.794 40.75 266.614 40.91C266.454 41.07 266.244 41.15 265.984 41.15ZM276.415 41.21C275.575 41.21 274.745 41.1 273.925 40.88C273.125 40.64 272.415 40.32 271.795 39.92C271.415 39.66 271.145 39.44 270.985 39.26C270.845 39.06 270.775 38.84 270.775 38.6C270.775 38.4 270.835 38.23 270.955 38.09C271.095 37.95 271.255 37.88 271.435 37.88C271.615 37.88 271.925 38.03 272.365 38.33C272.945 38.71 273.535 39.02 274.135 39.26C274.755 39.5 275.525 39.62 276.445 39.62C277.625 39.62 278.545 39.41 279.205 38.99C279.865 38.55 280.195 37.93 280.195 37.13C280.195 36.65 280.075 36.26 279.835 35.96C279.595 35.64 279.195 35.37 278.635 35.15C278.075 34.91 277.275 34.68 276.235 34.46C274.455 34.06 273.185 33.55 272.425 32.93C271.685 32.29 271.315 31.44 271.315 30.38C271.315 29.1 271.815 28.07 272.815 27.29C273.815 26.49 275.115 26.09 276.715 26.09C277.495 26.09 278.235 26.19 278.935 26.39C279.655 26.59 280.275 26.88 280.795 27.26C281.495 27.74 281.845 28.21 281.845 28.67C281.845 28.87 281.775 29.05 281.635 29.21C281.515 29.35 281.365 29.42 281.185 29.42C280.985 29.42 280.675 29.26 280.255 28.94C279.715 28.56 279.175 28.26 278.635 28.04C278.115 27.8 277.445 27.68 276.625 27.68C275.585 27.68 274.755 27.92 274.135 28.4C273.515 28.86 273.205 29.49 273.205 30.29C273.205 30.75 273.305 31.13 273.505 31.43C273.725 31.73 274.085 32 274.585 32.24C275.105 32.46 275.845 32.68 276.805 32.9C278.185 33.22 279.245 33.56 279.985 33.92C280.725 34.28 281.255 34.71 281.575 35.21C281.895 35.71 282.055 36.35 282.055 37.13C282.055 38.35 281.535 39.34 280.495 40.1C279.475 40.84 278.115 41.21 276.415 41.21Z" fill="#FAF8F7"/>
<g filter="url(#filter0_d)">
<path d="M23.7 4.68805L6.3 14.7881C4.9 15.5881 4 17.0881 4 18.7881V38.5881C4 40.1881 4.9 41.7881 6.3 42.5881L23.6 52.5881C25 53.3881 26.8 53.3881 28.2 52.5881L45.6 42.4881C47 41.6881 47.9 40.1881 47.9 38.4881L48 18.5881C48 16.9881 47.1 15.3881 45.7 14.5881L28.4 4.58805C26.9 3.78805 25.1 3.78805 23.7 4.68805Z" fill="white"/>
<path d="M23.6 31.688V48.388L8.99999 40.088C7.99999 39.488 7.29999 38.388 7.29999 37.188V20.488L21.9 28.888C23 29.388 23.6 30.488 23.6 31.688Z" fill="#0A2463"/>
<path d="M29.6 28.8881L44.2 20.3881V37.1881C44.2 38.3881 43.6 39.4881 42.6 39.9881L28 48.4881V31.6881C27.9 30.4881 28.6 29.4881 29.6 28.8881Z" fill="#FD7268"/>
<path d="M9.70001 16.9881L24.2 8.58806C25.3 7.98806 26.7 7.98806 27.8 8.58806L42.3 16.8881L27.8 25.2881C26.7 25.8881 25.3 25.8881 24.2 25.2881L9.70001 16.9881Z" fill="#0A2463"/>
</g>
<defs>
<filter id="filter0_d" x="0" y="0" width="52" height="57.1881" filterUnits="userSpaceOnUse" color-interpolation-filters="sRGB">
<feFlood flood-opacity="0" result="BackgroundImageFix"/>
<feColorMatrix in="SourceAlpha" type="matrix" values="0 0 0 0 0 0 0 0 0 0 0 0 0 0 0 0 0 0 127 0"/>
<feOffset/>
<feGaussianBlur stdDeviation="2"/>
<feColorMatrix type="matrix" values="0 0 0 0 0 0 0 0 0 0 0 0 0 0 0 0 0 0 0.25 0"/>
<feBlend mode="normal" in2="BackgroundImageFix" result="effect1_dropShadow"/>
<feBlend mode="normal" in="SourceGraphic" in2="effect1_dropShadow" result="shape"/>
</filter>
</defs>
</svg>
