<svg xmlns="http://www.w3.org/2000/svg" xmlns:xlink="http://www.w3.org/1999/xlink" width="1460" height="798.14"><rect width="1460" height="798.14" rx="5" ry="5" class="a"/><svg y="0%" x="0%"><circle cx="20" cy="20" r="6" fill="#ff5f58"/><circle cx="40" cy="20" r="6" fill="#ffbd2e"/><circle cx="60" cy="20" r="6" fill="#18c132"/></svg><svg height="738.14" viewBox="0 0 142 73.814" width="1420" x="15" xmlns="http://www.w3.org/2000/svg" xmlns:xlink="http://www.w3.org/1999/xlink" y="50"><style>@keyframes j{0%{transform:translateX(0)}.1%{transform:translateX(-284px)}13.9%{transform:translateX(-994px)}32.7%{transform:translateX(-1136px)}43.4%{transform:translateX(-1420px)}62.2%{transform:translateX(-1562px)}81%{transform:translateX(-1704px)}81.1%{transform:translateX(-2982px)}81.2%{transform:translateX(-3124px)}to{transform:translateX(-3266px)}}.a{fill:#282d35}.f,.g{fill:#b9c0cb;white-space:pre}.g{fill:#a8cc8c}</style><g font-family="Monaco,Consolas,Menlo,'Bitstream Vera Sans Mono','Powerline Symbols',monospace" font-size="1.67"><defs><symbol id="14"><text x="5.01" y="1.67" class="g">&apos;387a227065c9295e12feb59cd31b06c3becd393b0c9b4f6556b06e228deb2593&apos;</text><text x="71.142" y="1.67" class="f">,</text></symbol><symbol id="1"><text y="1.67" class="f">[sugarcube-project]$</text></symbol><symbol id="3"><text y="1.67" class="f">&gt;</text></symbol><symbol id="4"><text y="1.67" class="f">&gt;</text><text x="23.046" y="1.67" class="f">-q</text><text x="26.052" y="1.67" class="f">queries.json</text><text x="39.078" y="1.67" class="f">\</text></symbol><symbol id="5"><text y="1.67" class="f">&gt;</text><text x="23.046" y="1.67" class="f">--tap.select</text><text x="36.072" y="1.67" class="f">queries</text></symbol><symbol id="6"><text y="1.67" class="f">2019-11-09T17:48:32.308Z</text><text x="25.05" y="1.67" class="f">-</text><text x="27.054" y="1.67" class="g">info</text><text x="31.062" y="1.67" class="f">:</text><text x="33.066" y="1.67" class="f">Starting</text><text x="42.084" y="1.67" class="f">run</text><text x="46.092" y="1.67" class="f">fc9bb588a903ecf02add2b22daad0e3861eb4c1d.</text></symbol><symbol id="7"><text y="1.67" class="f">2019-11-09T17:48:32.312Z</text><text x="25.05" y="1.67" class="f">-</text><text x="27.054" y="1.67" class="g">info</text><text x="31.062" y="1.67" class="f">:</text><text x="33.066" y="1.67" class="f">Starting</text><text x="42.084" y="1.67" class="f">the</text><text x="46.092" y="1.67" class="f">http_import</text><text x="58.116" y="1.67" class="f">plugin.</text></symbol><symbol id="8"><text y="1.67" class="f">2019-11-09T17:48:39.524Z</text><text x="25.05" y="1.67" class="f">-</text><text x="27.054" y="1.67" class="g">info</text><text x="31.062" y="1.67" class="f">:</text><text x="33.066" y="1.67" class="f">Imported</text><text x="42.084" y="1.67" class="f">url</text><text x="46.092" y="1.67" class="f">https://mwatana.org/en/airstrike-on-detention-center/</text><text x="100.2" y="1.67" class="f">as</text><text x="103.206" y="1.67" class="f">media</text><text x="109.218" y="1.67" class="f">type</text><text x="114.228" y="1.67" class="f">&quot;url&quot;.</text></symbol><symbol id="9"><text y="1.67" class="f">2019-11-09T17:48:42.331Z</text><text x="25.05" y="1.67" class="f">-</text><text x="27.054" y="1.67" class="g">info</text><text x="31.062" y="1.67" class="f">:</text><text x="33.066" y="1.67" class="f">Imported</text><text x="42.084" y="1.67" class="f">url</text><text x="46.092" y="1.67" class="f">https://yemeniarchive.org</text><text x="72.144" y="1.67" class="f">as</text><text x="75.15" y="1.67" class="f">media</text><text x="81.162" y="1.67" class="f">type</text><text x="86.172" y="1.67" class="f">&quot;url&quot;.</text></symbol><symbol id="10"><text y="1.67" class="f">2019-11-09T17:48:42.337Z</text><text x="25.05" y="1.67" class="f">-</text><text x="27.054" y="1.67" class="g">info</text><text x="31.062" y="1.67" class="f">:</text><text x="33.066" y="1.67" class="f">Finished</text><text x="42.084" y="1.67" class="f">the</text><text x="46.092" y="1.67" class="f">http_import</text><text x="58.116" y="1.67" class="f">plugin.</text></symbol><symbol id="11"><text y="1.67" class="f">2019-11-09T17:48:42.338Z</text><text x="25.05" y="1.67" class="f">-</text><text x="27.054" y="1.67" class="g">info</text><text x="31.062" y="1.67" class="f">:</text><text x="33.066" y="1.67" class="f">Starting</text><text x="42.084" y="1.67" class="f">the</text><text x="46.092" y="1.67" class="f">tap_printf</text><text x="57.114" y="1.67" class="f">plugin.</text></symbol><symbol id="12"><text y="1.67" class="f">queries:</text></symbol><symbol id="13"><text y="1.67" class="f">[</text><text x="2.004" y="1.67" class="f">{</text><text x="4.008" y="1.67" class="f">_sc_id_hash:</text></symbol><symbol id="2"><text y="1.67" class="f">[sugarcube-project]$</text><text x="21.042" y="1.67" class="f">$(npm</text><text x="27.054" y="1.67" class="f">bin)/sugarcube</text><text x="42.084" y="1.67" class="f">-p</text><text x="45.09" y="1.67" class="f">http_import,tap_printf</text><text x="68.136" y="1.67" class="f">\</text></symbol><symbol id="15"><text x="4.008" y="1.67" class="f">type:</text><text x="10.02" y="1.67" class="g">&apos;http_url&apos;</text><text x="20.04" y="1.67" class="f">,</text></symbol><symbol id="16"><text x="4.008" y="1.67" class="f">term:</text><text x="10.02" y="1.67" class="g">&apos;https://mwatana.org/en/airstrike-on-detention-center/&apos;</text><text x="66.132" y="1.67" class="f">},</text></symbol><symbol id="17"><text x="2.004" y="1.67" class="f">{</text><text x="4.008" y="1.67" class="f">_sc_id_hash:</text></symbol><symbol id="18"><text x="5.01" y="1.67" class="g">&apos;8fd5787e38b48359e1b98daa84a0fd5f0af39fa08e62cb8dd25f2f0152436f9b&apos;</text><text x="71.142" y="1.67" class="f">,</text></symbol><symbol id="19"><text x="4.008" y="1.67" class="f">term:</text><text x="10.02" y="1.67" class="g">&apos;https://yemeniarchive.org&apos;</text><text x="38.076" y="1.67" class="f">}</text><text x="40.08" y="1.67" class="f">]</text></symbol><symbol id="20"><text y="1.67" class="f">2019-11-09T17:48:42.343Z</text><text x="25.05" y="1.67" class="f">-</text><text x="27.054" y="1.67" class="g">info</text><text x="31.062" y="1.67" class="f">:</text><text x="33.066" y="1.67" class="f">Finished</text><text x="42.084" y="1.67" class="f">the</text><text x="46.092" y="1.67" class="f">tap_printf</text><text x="57.114" y="1.67" class="f">plugin.</text></symbol><symbol id="21"><text y="1.67" class="f">2019-11-09T17:48:42.345Z</text><text x="25.05" y="1.67" class="f">-</text><text x="27.054" y="1.67" class="g">info</text><text x="31.062" y="1.67" class="f">:</text><text x="33.066" y="1.67" class="f">Pipeline</text><text x="42.084" y="1.67" class="f">sugarcube-project/Unnamed</text><text x="68.136" y="1.67" class="f">Pipeline</text><text x="77.154" y="1.67" class="f">took</text><text x="82.164" y="1.67" class="f">less</text><text x="87.174" y="1.67" class="f">than</text><text x="92.184" y="1.67" class="f">a</text><text x="94.188" y="1.67" class="f">minute</text><text x="101.202" y="1.67" class="f">and</text><text x="105.21" y="1.67" class="f">had</text><text x="109.218" y="1.67" class="f">no</text><text x="112.224" y="1.67" class="f">failures.</text></symbol><symbol id="22"><text y="1.67" class="f">2019-11-09T17:48:42.345Z</text><text x="25.05" y="1.67" class="f">-</text><text x="27.054" y="1.67" class="g">info</text><text x="31.062" y="1.67" class="f">:</text><text x="33.066" y="1.67" class="f">Plugin</text><text x="40.08" y="1.67" class="f">http_import</text><text x="52.104" y="1.67" class="f">took</text><text x="57.114" y="1.67" class="f">less</text><text x="62.124" y="1.67" class="f">than</text><text x="67.134" y="1.67" class="f">a</text><text x="69.138" y="1.67" class="f">minute</text></symbol><symbol id="23"><text y="1.67" class="f">2019-11-09T17:48:42.345Z</text><text x="25.05" y="1.67" class="f">-</text><text x="27.054" y="1.67" class="g">info</text><text x="31.062" y="1.67" class="f">:</text><text x="35.07" y="1.67" class="f">counts:</text><text x="43.086" y="1.67" class="f">total=2,</text><text x="52.104" y="1.67" class="f">success=2</text></symbol><symbol id="24"><text y="1.67" class="f">2019-11-09T17:48:42.345Z</text><text x="25.05" y="1.67" class="f">-</text><text x="27.054" y="1.67" class="g">info</text><text x="31.062" y="1.67" class="f">:</text><text x="33.066" y="1.67" class="f">Plugin</text><text x="40.08" y="1.67" class="f">tap_printf</text><text x="51.102" y="1.67" class="f">took</text><text x="56.112" y="1.67" class="f">less</text><text x="61.122" y="1.67" class="f">than</text><text x="66.132" y="1.67" class="f">a</text><text x="68.136" y="1.67" class="f">minute</text></symbol><symbol id="25"><text y="1.67" class="f">2019-11-09T17:48:42.345Z</text><text x="25.05" y="1.67" class="f">-</text><text x="27.054" y="1.67" class="g">info</text><text x="31.062" y="1.67" class="f">:</text><text x="33.066" y="1.67" class="f">Finished</text><text x="42.084" y="1.67" class="f">the</text><text x="46.092" y="1.67" class="f">LSD.</text></symbol><symbol id="a"><path fill="transparent" d="M0 0h142v34H0z"/></symbol><symbol id="b"><path fill="#6f7683" d="M0 0h1.102v2.171H0z"/></symbol></defs><path class="a" d="M0 0h142v73.814H0z"/><g style="animation-duration:10.639273s;animation-iteration-count:infinite;animation-name:j;animation-timing-function:steps(1,end)"><svg width="3408"><svg><use xlink:href="#a"/><use xlink:href="#b" x="-.004"/></svg><svg x="142"><use xlink:href="#a"/><use xlink:href="#b" x="-.004"/></svg><svg x="284"><use xlink:href="#a"/><use xlink:href="#b" x="20.996"/><use xlink:href="#1"/></svg><svg x="426"><use xlink:href="#a"/><use xlink:href="#b" x="-.004" y="2.146"/><use xlink:href="#2"/></svg><svg x="568"><use xlink:href="#a"/><use xlink:href="#b" x="1.996" y="2.146"/><use xlink:href="#2"/><use xlink:href="#3" y="2.171"/></svg><svg x="710"><use xlink:href="#a"/><use xlink:href="#b" x="-.004" y="4.317"/><use xlink:href="#2"/><use xlink:href="#4" y="2.171"/></svg><svg x="852"><use xlink:href="#a"/><use xlink:href="#b" x="1.996" y="4.317"/><use xlink:href="#2"/><use xlink:href="#4" y="2.171"/><use xlink:href="#3" y="4.342"/></svg><svg x="994"><use xlink:href="#a"/><use xlink:href="#b" x="42.996" y="4.317"/><use xlink:href="#2"/><use xlink:href="#4" y="2.171"/><use xlink:href="#5" y="4.342"/></svg><svg x="1136"><use xlink:href="#a"/><use xlink:href="#b" x="-.004" y="6.488"/><use xlink:href="#2"/><use xlink:href="#4" y="2.171"/><use xlink:href="#5" y="4.342"/></svg><svg x="1278"><use xlink:href="#a"/><use xlink:href="#b" x="-.004" y="8.659"/><use xlink:href="#2"/><use xlink:href="#4" y="2.171"/><use xlink:href="#5" y="4.342"/><use xlink:href="#6" y="6.513"/></svg><svg x="1420"><use xlink:href="#a"/><use xlink:href="#b" x="-.004" y="10.83"/><use xlink:href="#2"/><use xlink:href="#4" y="2.171"/><use xlink:href="#5" y="4.342"/><use xlink:href="#6" y="6.513"/><use xlink:href="#7" y="8.684"/></svg><svg x="1562"><use xlink:href="#a"/><use xlink:href="#b" x="-.004" y="13.001"/><use xlink:href="#2"/><use xlink:href="#4" y="2.171"/><use xlink:href="#5" y="4.342"/><use xlink:href="#6" y="6.513"/><use xlink:href="#7" y="8.684"/><use xlink:href="#8" y="10.855"/></svg><svg x="1704"><use xlink:href="#a"/><use xlink:href="#b" x="-.004" y="15.172"/><use xlink:href="#2"/><use xlink:href="#4" y="2.171"/><use xlink:href="#5" y="4.342"/><use xlink:href="#6" y="6.513"/><use xlink:href="#7" y="8.684"/><use xlink:href="#8" y="10.855"/><use xlink:href="#9" y="13.026"/></svg><svg x="1846"><use xlink:href="#a"/><use xlink:href="#b" x="-.004" y="17.343"/><use xlink:href="#2"/><use xlink:href="#4" y="2.171"/><use xlink:href="#5" y="4.342"/><use xlink:href="#6" y="6.513"/><use xlink:href="#7" y="8.684"/><use xlink:href="#8" y="10.855"/><use xlink:href="#9" y="13.026"/><use xlink:href="#10" y="15.197"/></svg><svg x="1988"><use xlink:href="#a"/><use xlink:href="#b" x="-.004" y="19.514"/><use xlink:href="#2"/><use xlink:href="#4" y="2.171"/><use xlink:href="#5" y="4.342"/><use xlink:href="#6" y="6.513"/><use xlink:href="#7" y="8.684"/><use xlink:href="#8" y="10.855"/><use xlink:href="#9" y="13.026"/><use xlink:href="#10" y="15.197"/><use xlink:href="#11" y="17.368"/></svg><svg x="2130"><use xlink:href="#a"/><use xlink:href="#b" x="-.004" y="21.685"/><use xlink:href="#2"/><use xlink:href="#4" y="2.171"/><use xlink:href="#5" y="4.342"/><use xlink:href="#6" y="6.513"/><use xlink:href="#7" y="8.684"/><use xlink:href="#8" y="10.855"/><use xlink:href="#9" y="13.026"/><use xlink:href="#10" y="15.197"/><use xlink:href="#11" y="17.368"/><use xlink:href="#12" y="19.539"/></svg><svg x="2272"><use xlink:href="#a"/><use xlink:href="#b" x="-.004" y="39.053"/><use xlink:href="#2"/><use xlink:href="#4" y="2.171"/><use xlink:href="#5" y="4.342"/><use xlink:href="#6" y="6.513"/><use xlink:href="#7" y="8.684"/><use xlink:href="#8" y="10.855"/><use xlink:href="#9" y="13.026"/><use xlink:href="#10" y="15.197"/><use xlink:href="#11" y="17.368"/><use xlink:href="#12" y="19.539"/><use xlink:href="#13" y="21.71"/><use xlink:href="#14" y="23.881"/><use xlink:href="#15" y="26.052"/><use xlink:href="#16" y="28.223"/><use xlink:href="#17" y="30.394"/><use xlink:href="#18" y="32.565"/><use xlink:href="#15" y="34.736"/><use xlink:href="#19" y="36.907"/></svg><svg x="2414"><use xlink:href="#a"/><use xlink:href="#b" x="-.004" y="41.224"/><use xlink:href="#2"/><use xlink:href="#4" y="2.171"/><use xlink:href="#5" y="4.342"/><use xlink:href="#6" y="6.513"/><use xlink:href="#7" y="8.684"/><use xlink:href="#8" y="10.855"/><use xlink:href="#9" y="13.026"/><use xlink:href="#10" y="15.197"/><use xlink:href="#11" y="17.368"/><use xlink:href="#12" y="19.539"/><use xlink:href="#13" y="21.71"/><use xlink:href="#14" y="23.881"/><use xlink:href="#15" y="26.052"/><use xlink:href="#16" y="28.223"/><use xlink:href="#17" y="30.394"/><use xlink:href="#18" y="32.565"/><use xlink:href="#15" y="34.736"/><use xlink:href="#19" y="36.907"/><use xlink:href="#20" y="39.078"/></svg><svg x="2556"><use xlink:href="#a"/><use xlink:href="#b" x="-.004" y="43.395"/><use xlink:href="#2"/><use xlink:href="#4" y="2.171"/><use xlink:href="#5" y="4.342"/><use xlink:href="#6" y="6.513"/><use xlink:href="#7" y="8.684"/><use xlink:href="#8" y="10.855"/><use xlink:href="#9" y="13.026"/><use xlink:href="#10" y="15.197"/><use xlink:href="#11" y="17.368"/><use xlink:href="#12" y="19.539"/><use xlink:href="#13" y="21.71"/><use xlink:href="#14" y="23.881"/><use xlink:href="#15" y="26.052"/><use xlink:href="#16" y="28.223"/><use xlink:href="#17" y="30.394"/><use xlink:href="#18" y="32.565"/><use xlink:href="#15" y="34.736"/><use xlink:href="#19" y="36.907"/><use xlink:href="#20" y="39.078"/><use xlink:href="#21" y="41.249"/></svg><svg x="2698"><use xlink:href="#a"/><use xlink:href="#b" x="-.004" y="47.737"/><use xlink:href="#2"/><use xlink:href="#4" y="2.171"/><use xlink:href="#5" y="4.342"/><use xlink:href="#6" y="6.513"/><use xlink:href="#7" y="8.684"/><use xlink:href="#8" y="10.855"/><use xlink:href="#9" y="13.026"/><use xlink:href="#10" y="15.197"/><use xlink:href="#11" y="17.368"/><use xlink:href="#12" y="19.539"/><use xlink:href="#13" y="21.71"/><use xlink:href="#14" y="23.881"/><use xlink:href="#15" y="26.052"/><use xlink:href="#16" y="28.223"/><use xlink:href="#17" y="30.394"/><use xlink:href="#18" y="32.565"/><use xlink:href="#15" y="34.736"/><use xlink:href="#19" y="36.907"/><use xlink:href="#20" y="39.078"/><use xlink:href="#21" y="41.249"/><use xlink:href="#22" y="43.42"/><use xlink:href="#23" y="45.591"/></svg><svg x="2840"><use xlink:href="#a"/><use xlink:href="#b" x="-.004" y="49.908"/><use xlink:href="#2"/><use xlink:href="#4" y="2.171"/><use xlink:href="#5" y="4.342"/><use xlink:href="#6" y="6.513"/><use xlink:href="#7" y="8.684"/><use xlink:href="#8" y="10.855"/><use xlink:href="#9" y="13.026"/><use xlink:href="#10" y="15.197"/><use xlink:href="#11" y="17.368"/><use xlink:href="#12" y="19.539"/><use xlink:href="#13" y="21.71"/><use xlink:href="#14" y="23.881"/><use xlink:href="#15" y="26.052"/><use xlink:href="#16" y="28.223"/><use xlink:href="#17" y="30.394"/><use xlink:href="#18" y="32.565"/><use xlink:href="#15" y="34.736"/><use xlink:href="#19" y="36.907"/><use xlink:href="#20" y="39.078"/><use xlink:href="#21" y="41.249"/><use xlink:href="#22" y="43.42"/><use xlink:href="#23" y="45.591"/><use xlink:href="#24" y="47.762"/></svg><svg x="2982"><use xlink:href="#a"/><use xlink:href="#b" x="-.004" y="52.079"/><use xlink:href="#2"/><use xlink:href="#4" y="2.171"/><use xlink:href="#5" y="4.342"/><use xlink:href="#6" y="6.513"/><use xlink:href="#7" y="8.684"/><use xlink:href="#8" y="10.855"/><use xlink:href="#9" y="13.026"/><use xlink:href="#10" y="15.197"/><use xlink:href="#11" y="17.368"/><use xlink:href="#12" y="19.539"/><use xlink:href="#13" y="21.71"/><use xlink:href="#14" y="23.881"/><use xlink:href="#15" y="26.052"/><use xlink:href="#16" y="28.223"/><use xlink:href="#17" y="30.394"/><use xlink:href="#18" y="32.565"/><use xlink:href="#15" y="34.736"/><use xlink:href="#19" y="36.907"/><use xlink:href="#20" y="39.078"/><use xlink:href="#21" y="41.249"/><use xlink:href="#22" y="43.42"/><use xlink:href="#23" y="45.591"/><use xlink:href="#24" y="47.762"/><use xlink:href="#25" y="49.933"/></svg><svg x="3124"><use xlink:href="#a"/><use xlink:href="#b" x="20.996" y="52.079"/><use xlink:href="#2"/><use xlink:href="#4" y="2.171"/><use xlink:href="#5" y="4.342"/><use xlink:href="#6" y="6.513"/><use xlink:href="#7" y="8.684"/><use xlink:href="#8" y="10.855"/><use xlink:href="#9" y="13.026"/><use xlink:href="#10" y="15.197"/><use xlink:href="#11" y="17.368"/><use xlink:href="#12" y="19.539"/><use xlink:href="#13" y="21.71"/><use xlink:href="#14" y="23.881"/><use xlink:href="#15" y="26.052"/><use xlink:href="#16" y="28.223"/><use xlink:href="#17" y="30.394"/><use xlink:href="#18" y="32.565"/><use xlink:href="#15" y="34.736"/><use xlink:href="#19" y="36.907"/><use xlink:href="#20" y="39.078"/><use xlink:href="#21" y="41.249"/><use xlink:href="#22" y="43.42"/><use xlink:href="#23" y="45.591"/><use xlink:href="#24" y="47.762"/><use xlink:href="#25" y="49.933"/><use xlink:href="#1" y="52.104"/></svg><svg x="3266"><use xlink:href="#a"/><use xlink:href="#b" x="-.004" y="54.25"/><use xlink:href="#2"/><use xlink:href="#4" y="2.171"/><use xlink:href="#5" y="4.342"/><use xlink:href="#6" y="6.513"/><use xlink:href="#7" y="8.684"/><use xlink:href="#8" y="10.855"/><use xlink:href="#9" y="13.026"/><use xlink:href="#10" y="15.197"/><use xlink:href="#11" y="17.368"/><use xlink:href="#12" y="19.539"/><use xlink:href="#13" y="21.71"/><use xlink:href="#14" y="23.881"/><use xlink:href="#15" y="26.052"/><use xlink:href="#16" y="28.223"/><use xlink:href="#17" y="30.394"/><use xlink:href="#18" y="32.565"/><use xlink:href="#15" y="34.736"/><use xlink:href="#19" y="36.907"/><use xlink:href="#20" y="39.078"/><use xlink:href="#21" y="41.249"/><use xlink:href="#22" y="43.42"/><use xlink:href="#23" y="45.591"/><use xlink:href="#24" y="47.762"/><use xlink:href="#25" y="49.933"/><text y="53.774" class="f">[sugarcube-project]$</text><text x="21.042" y="53.774" class="f">exit</text></svg></svg></g></g></svg></svg>