<svg xmlns="http://www.w3.org/2000/svg" xmlns:xlink="http://www.w3.org/1999/xlink" width="1460" height="798.14"><rect width="1460" height="798.14" rx="5" ry="5" class="a"/><svg y="0%" x="0%"><circle cx="20" cy="20" r="6" fill="#ff5f58"/><circle cx="40" cy="20" r="6" fill="#ffbd2e"/><circle cx="60" cy="20" r="6" fill="#18c132"/></svg><svg height="738.14" viewBox="0 0 142 73.814" width="1420" x="15" xmlns="http://www.w3.org/2000/svg" xmlns:xlink="http://www.w3.org/1999/xlink" y="50"><style>@keyframes j{0%{transform:translateX(0)}.08%{transform:translateX(-284px)}10.48%{transform:translateX(-568px)}10.49%{transform:translateX(-1278px)}21%{transform:translateX(-1420px)}26.95%{transform:translateX(-1562px)}26.97%{transform:translateX(-1704px)}37.48%{transform:translateX(-1846px)}46.9%{transform:translateX(-1988px)}46.93%{transform:translateX(-2414px)}57.44%{transform:translateX(-2556px)}67.95%{transform:translateX(-2698px)}68.19%{transform:translateX(-3124px)}78.7%{transform:translateX(-3266px)}89.21%{transform:translateX(-3408px)}89.36%{transform:translateX(-3692px)}89.37%{transform:translateX(-3834px)}89.43%{transform:translateX(-3976px)}89.44%{transform:translateX(-4970px)}89.49%{transform:translateX(-5254px)}to{transform:translateX(-5396px)}}.a{fill:#282d35}.f,.g{fill:#b9c0cb;white-space:pre}.g{fill:#a8cc8c}</style><g font-family="Monaco,Consolas,Menlo,'Bitstream Vera Sans Mono','Powerline Symbols',monospace" font-size="1.67"><defs><symbol id="20"><text y="1.67" class="f">2019-11-09T18:07:41.498Z</text><text x="25.05" y="1.67" class="f">-</text><text x="27.054" y="1.67" class="g">info</text><text x="31.062" y="1.67" class="f">:</text><text x="33.066" y="1.67" class="f">Take</text><text x="38.076" y="1.67" class="f">a</text><text x="40.08" y="1.67" class="f">single</text><text x="47.094" y="1.67" class="f">screenshot</text><text x="58.116" y="1.67" class="f">at</text><text x="61.122" y="1.67" class="f">a</text><text x="63.126" y="1.67" class="f">time.</text></symbol><symbol id="1"><text y="1.67" class="f">[sugarcube-project]$</text></symbol><symbol id="3"><text y="1.67" class="f">&gt;</text></symbol><symbol id="4"><text y="1.67" class="f">&gt;</text><text x="23.046" y="1.67" class="f">-Q</text><text x="26.052" y="1.67" class="f">http_url:&apos;https://mwatana.org/en/airstrike-on-detention-center/&apos;</text><text x="91.182" y="1.67" class="f">\</text></symbol><symbol id="5"><text y="1.67" class="f">&gt;</text><text x="23.046" y="1.67" class="f">-Q</text><text x="26.052" y="1.67" class="f">http_url:&apos;https://yemeniarchive.org&apos;</text><text x="63.126" y="1.67" class="f">\</text></symbol><symbol id="6"><text y="1.67" class="f">&gt;</text><text x="23.046" y="1.67" class="f">--csv.filename</text><text x="38.076" y="1.67" class="f">web-import-results.csv</text></symbol><symbol id="7"><text y="1.67" class="f">2019-11-09T18:07:12.760Z</text><text x="25.05" y="1.67" class="f">-</text><text x="27.054" y="1.67" class="g">info</text><text x="31.062" y="1.67" class="f">:</text><text x="33.066" y="1.67" class="f">Starting</text><text x="42.084" y="1.67" class="f">run</text><text x="46.092" y="1.67" class="f">48dea3876be4feb2ae3ab4769c87dd37eb9b12fb.</text></symbol><symbol id="8"><text y="1.67" class="f">2019-11-09T18:07:12.764Z</text><text x="25.05" y="1.67" class="f">-</text><text x="27.054" y="1.67" class="g">info</text><text x="31.062" y="1.67" class="f">:</text><text x="33.066" y="1.67" class="f">Starting</text><text x="42.084" y="1.67" class="f">the</text><text x="46.092" y="1.67" class="f">http_import</text><text x="58.116" y="1.67" class="f">plugin.</text></symbol><symbol id="9"><text y="1.67" class="f">2019-11-09T18:07:21.450Z</text><text x="25.05" y="1.67" class="f">-</text><text x="27.054" y="1.67" class="g">info</text><text x="31.062" y="1.67" class="f">:</text><text x="33.066" y="1.67" class="f">Imported</text><text x="42.084" y="1.67" class="f">url</text><text x="46.092" y="1.67" class="f">https://mwatana.org/en/airstrike-on-detention-center/</text><text x="100.2" y="1.67" class="f">as</text><text x="103.206" y="1.67" class="f">media</text><text x="109.218" y="1.67" class="f">type</text><text x="114.228" y="1.67" class="f">&quot;url&quot;.</text></symbol><symbol id="10"><text y="1.67" class="f">2019-11-09T18:07:23.243Z</text><text x="25.05" y="1.67" class="f">-</text><text x="27.054" y="1.67" class="g">info</text><text x="31.062" y="1.67" class="f">:</text><text x="33.066" y="1.67" class="f">Imported</text><text x="42.084" y="1.67" class="f">url</text><text x="46.092" y="1.67" class="f">https://yemeniarchive.org</text><text x="72.144" y="1.67" class="f">as</text><text x="75.15" y="1.67" class="f">media</text><text x="81.162" y="1.67" class="f">type</text><text x="86.172" y="1.67" class="f">&quot;url&quot;.</text></symbol><symbol id="11"><text y="1.67" class="f">2019-11-09T18:07:23.248Z</text><text x="25.05" y="1.67" class="f">-</text><text x="27.054" y="1.67" class="g">info</text><text x="31.062" y="1.67" class="f">:</text><text x="33.066" y="1.67" class="f">Finished</text><text x="42.084" y="1.67" class="f">the</text><text x="46.092" y="1.67" class="f">http_import</text><text x="58.116" y="1.67" class="f">plugin.</text></symbol><symbol id="12"><text y="1.67" class="f">2019-11-09T18:07:23.249Z</text><text x="25.05" y="1.67" class="f">-</text><text x="27.054" y="1.67" class="g">info</text><text x="31.062" y="1.67" class="f">:</text><text x="33.066" y="1.67" class="f">Starting</text><text x="42.084" y="1.67" class="f">the</text><text x="46.092" y="1.67" class="f">media_warc</text><text x="57.114" y="1.67" class="f">plugin.</text></symbol><symbol id="13"><text y="1.67" class="f">2019-11-09T18:07:23.249Z</text><text x="25.05" y="1.67" class="f">-</text><text x="27.054" y="1.67" class="g">info</text><text x="31.062" y="1.67" class="f">:</text><text x="33.066" y="1.67" class="f">Run</text><text x="37.074" y="1.67" class="f">a</text><text x="39.078" y="1.67" class="f">single</text><text x="46.092" y="1.67" class="f">archival</text><text x="55.11" y="1.67" class="f">at</text><text x="58.116" y="1.67" class="f">a</text><text x="60.12" y="1.67" class="f">time.</text></symbol><symbol id="14"><text y="1.67" class="f">2019-11-09T18:07:34.725Z</text><text x="25.05" y="1.67" class="f">-</text><text x="27.054" y="1.67" class="g">info</text><text x="31.062" y="1.67" class="f">:</text><text x="33.066" y="1.67" class="f">Archived</text><text x="42.084" y="1.67" class="f">https://mwatana.org/en/airstrike-on-detention-center/</text><text x="96.192" y="1.67" class="f">to</text><text x="99.198" y="1.67" class="f">data/b6a76260b11ce95edb4a2e90e1f87fb49fc679</text></symbol><symbol id="15"><text y="1.67" class="f">d317b9e5afe93cf578db17329a/warc/06407f93bcb49f9080269a9f1637261335562b2dafc3d00db6fbfcea1f83c0f8.warc.gz.</text></symbol><symbol id="16"><text y="1.67" class="f">2019-11-09T18:07:41.453Z</text><text x="25.05" y="1.67" class="f">-</text><text x="27.054" y="1.67" class="g">info</text><text x="31.062" y="1.67" class="f">:</text><text x="33.066" y="1.67" class="f">Archived</text><text x="42.084" y="1.67" class="f">https://yemeniarchive.org</text><text x="68.136" y="1.67" class="f">to</text><text x="71.142" y="1.67" class="f">data/7748f388df6b711d588bc17bd24878aaeb0692a4885f3e8dbc5b88cebc5f4cab/w</text></symbol><symbol id="17"><text y="1.67" class="f">arc/cb7cccffc75fbed1cd4342b3fa59561fe2b714788f71b09b2b5cedbe94dd471b.warc.gz.</text></symbol><symbol id="18"><text y="1.67" class="f">2019-11-09T18:07:41.497Z</text><text x="25.05" y="1.67" class="f">-</text><text x="27.054" y="1.67" class="g">info</text><text x="31.062" y="1.67" class="f">:</text><text x="33.066" y="1.67" class="f">Finished</text><text x="42.084" y="1.67" class="f">the</text><text x="46.092" y="1.67" class="f">media_warc</text><text x="57.114" y="1.67" class="f">plugin.</text></symbol><symbol id="19"><text y="1.67" class="f">2019-11-09T18:07:41.498Z</text><text x="25.05" y="1.67" class="f">-</text><text x="27.054" y="1.67" class="g">info</text><text x="31.062" y="1.67" class="f">:</text><text x="33.066" y="1.67" class="f">Starting</text><text x="42.084" y="1.67" class="f">the</text><text x="46.092" y="1.67" class="f">media_screenshot</text><text x="63.126" y="1.67" class="f">plugin.</text></symbol><symbol id="2"><text y="1.67" class="f">[sugarcube-project]$</text><text x="21.042" y="1.67" class="f">$(npm</text><text x="27.054" y="1.67" class="f">bin)/sugarcube</text><text x="42.084" y="1.67" class="f">-p</text><text x="45.09" y="1.67" class="f">http_import,media_warc,media_screenshot,csv_export</text><text x="96.192" y="1.67" class="f">\</text></symbol><symbol id="21"><text y="1.67" class="f">2019-11-09T18:07:51.377Z</text><text x="25.05" y="1.67" class="f">-</text><text x="27.054" y="1.67" class="g">info</text><text x="31.062" y="1.67" class="f">:</text><text x="33.066" y="1.67" class="f">Taking</text><text x="40.08" y="1.67" class="f">a</text><text x="42.084" y="1.67" class="f">screenshot</text><text x="53.106" y="1.67" class="f">of</text><text x="56.112" y="1.67" class="f">https://mwatana.org/en/airstrike-on-detention-center/</text><text x="110.22" y="1.67" class="f">in</text><text x="113.226" y="1.67" class="f">data/b6a76260b11ce95edb4a2e90</text></symbol><symbol id="22"><text y="1.67" class="f">e1f87fb49fc679d317b9e5afe93cf578db17329a/image/06407f93bcb49f9080269a9f1637261335562b2dafc3d00db6fbfcea1f83c0f8.screenshot.jpg.</text></symbol><symbol id="23"><text y="1.67" class="f">2019-11-09T18:07:57.932Z</text><text x="25.05" y="1.67" class="f">-</text><text x="27.054" y="1.67" class="g">info</text><text x="31.062" y="1.67" class="f">:</text><text x="33.066" y="1.67" class="f">Taking</text><text x="40.08" y="1.67" class="f">a</text><text x="42.084" y="1.67" class="f">screenshot</text><text x="53.106" y="1.67" class="f">of</text><text x="56.112" y="1.67" class="f">https://yemeniarchive.org</text><text x="82.164" y="1.67" class="f">in</text><text x="85.17" y="1.67" class="f">data/7748f388df6b711d588bc17bd24878aaeb0692a4885f3e8dbc5b</text></symbol><symbol id="24"><text y="1.67" class="f">88cebc5f4cab/image/cb7cccffc75fbed1cd4342b3fa59561fe2b714788f71b09b2b5cedbe94dd471b.screenshot.jpg.</text></symbol><symbol id="25"><text y="1.67" class="f">2019-11-09T18:07:57.961Z</text><text x="25.05" y="1.67" class="f">-</text><text x="27.054" y="1.67" class="g">info</text><text x="31.062" y="1.67" class="f">:</text><text x="33.066" y="1.67" class="f">Finished</text><text x="42.084" y="1.67" class="f">the</text><text x="46.092" y="1.67" class="f">media_screenshot</text><text x="63.126" y="1.67" class="f">plugin.</text></symbol><symbol id="26"><text y="1.67" class="f">2019-11-09T18:07:57.961Z</text><text x="25.05" y="1.67" class="f">-</text><text x="27.054" y="1.67" class="g">info</text><text x="31.062" y="1.67" class="f">:</text><text x="33.066" y="1.67" class="f">Starting</text><text x="42.084" y="1.67" class="f">the</text><text x="46.092" y="1.67" class="f">csv_export</text><text x="57.114" y="1.67" class="f">plugin.</text></symbol><symbol id="27"><text y="1.67" class="f">2019-11-09T18:07:57.962Z</text><text x="25.05" y="1.67" class="f">-</text><text x="27.054" y="1.67" class="g">info</text><text x="31.062" y="1.67" class="f">:</text><text x="33.066" y="1.67" class="f">Converting</text><text x="44.088" y="1.67" class="f">to</text><text x="47.094" y="1.67" class="f">csv</text><text x="51.102" y="1.67" class="f">and</text><text x="55.11" y="1.67" class="f">writing</text><text x="63.126" y="1.67" class="f">to</text><text x="66.132" y="1.67" class="f">web-import-results.csv.</text></symbol><symbol id="28"><text y="1.67" class="f">2019-11-09T18:07:57.975Z</text><text x="25.05" y="1.67" class="f">-</text><text x="27.054" y="1.67" class="g">info</text><text x="31.062" y="1.67" class="f">:</text><text x="33.066" y="1.67" class="f">Finished</text><text x="42.084" y="1.67" class="f">the</text><text x="46.092" y="1.67" class="f">csv_export</text><text x="57.114" y="1.67" class="f">plugin.</text></symbol><symbol id="29"><text y="1.67" class="f">2019-11-09T18:07:57.976Z</text><text x="25.05" y="1.67" class="f">-</text><text x="27.054" y="1.67" class="g">info</text><text x="31.062" y="1.67" class="f">:</text><text x="33.066" y="1.67" class="f">Pipeline</text><text x="42.084" y="1.67" class="f">sugarcube-project/Unnamed</text><text x="68.136" y="1.67" class="f">Pipeline</text><text x="77.154" y="1.67" class="f">took</text><text x="82.164" y="1.67" class="f">1</text><text x="84.168" y="1.67" class="f">minute</text><text x="91.182" y="1.67" class="f">and</text><text x="95.19" y="1.67" class="f">had</text><text x="99.198" y="1.67" class="f">no</text><text x="102.204" y="1.67" class="f">failures.</text></symbol><symbol id="30"><text y="1.67" class="f">2019-11-09T18:07:57.976Z</text><text x="25.05" y="1.67" class="f">-</text><text x="27.054" y="1.67" class="g">info</text><text x="31.062" y="1.67" class="f">:</text><text x="33.066" y="1.67" class="f">Plugin</text><text x="40.08" y="1.67" class="f">http_import</text><text x="52.104" y="1.67" class="f">took</text><text x="57.114" y="1.67" class="f">less</text><text x="62.124" y="1.67" class="f">than</text><text x="67.134" y="1.67" class="f">a</text><text x="69.138" y="1.67" class="f">minute</text></symbol><symbol id="31"><text y="1.67" class="f">2019-11-09T18:07:57.976Z</text><text x="25.05" y="1.67" class="f">-</text><text x="27.054" y="1.67" class="g">info</text><text x="31.062" y="1.67" class="f">:</text><text x="35.07" y="1.67" class="f">counts:</text><text x="43.086" y="1.67" class="f">total=2,</text><text x="52.104" y="1.67" class="f">success=2</text></symbol><symbol id="32"><text y="1.67" class="f">2019-11-09T18:07:57.976Z</text><text x="25.05" y="1.67" class="f">-</text><text x="27.054" y="1.67" class="g">info</text><text x="31.062" y="1.67" class="f">:</text><text x="33.066" y="1.67" class="f">Plugin</text><text x="40.08" y="1.67" class="f">media_warc</text><text x="51.102" y="1.67" class="f">took</text><text x="56.112" y="1.67" class="f">less</text><text x="61.122" y="1.67" class="f">than</text><text x="66.132" y="1.67" class="f">a</text><text x="68.136" y="1.67" class="f">minute</text></symbol><symbol id="33"><text y="1.67" class="f">2019-11-09T18:07:57.976Z</text><text x="25.05" y="1.67" class="f">-</text><text x="27.054" y="1.67" class="g">info</text><text x="31.062" y="1.67" class="f">:</text><text x="35.07" y="1.67" class="f">counts:</text><text x="43.086" y="1.67" class="f">total=2,</text><text x="52.104" y="1.67" class="f">success=2,</text><text x="63.126" y="1.67" class="f">new=2</text></symbol><symbol id="34"><text y="1.67" class="f">2019-11-09T18:07:57.976Z</text><text x="25.05" y="1.67" class="f">-</text><text x="27.054" y="1.67" class="g">info</text><text x="31.062" y="1.67" class="f">:</text><text x="33.066" y="1.67" class="f">Plugin</text><text x="40.08" y="1.67" class="f">media_screenshot</text><text x="57.114" y="1.67" class="f">took</text><text x="62.124" y="1.67" class="f">less</text><text x="67.134" y="1.67" class="f">than</text><text x="72.144" y="1.67" class="f">a</text><text x="74.148" y="1.67" class="f">minute</text></symbol><symbol id="35"><text y="1.67" class="f">2019-11-09T18:07:57.977Z</text><text x="25.05" y="1.67" class="f">-</text><text x="27.054" y="1.67" class="g">info</text><text x="31.062" y="1.67" class="f">:</text><text x="35.07" y="1.67" class="f">counts:</text><text x="43.086" y="1.67" class="f">total=2,</text><text x="52.104" y="1.67" class="f">success=2,</text><text x="63.126" y="1.67" class="f">new=2</text></symbol><symbol id="36"><text y="1.67" class="f">2019-11-09T18:07:57.977Z</text><text x="25.05" y="1.67" class="f">-</text><text x="27.054" y="1.67" class="g">info</text><text x="31.062" y="1.67" class="f">:</text><text x="33.066" y="1.67" class="f">Plugin</text><text x="40.08" y="1.67" class="f">csv_export</text><text x="51.102" y="1.67" class="f">took</text><text x="56.112" y="1.67" class="f">less</text><text x="61.122" y="1.67" class="f">than</text><text x="66.132" y="1.67" class="f">a</text><text x="68.136" y="1.67" class="f">minute</text></symbol><symbol id="37"><text y="1.67" class="f">2019-11-09T18:07:57.977Z</text><text x="25.05" y="1.67" class="f">-</text><text x="27.054" y="1.67" class="g">info</text><text x="31.062" y="1.67" class="f">:</text><text x="33.066" y="1.67" class="f">Finished</text><text x="42.084" y="1.67" class="f">the</text><text x="46.092" y="1.67" class="f">LSD.</text></symbol><symbol id="a"><path fill="transparent" d="M0 0h142v34H0z"/></symbol><symbol id="b"><path fill="#6f7683" d="M0 0h1.102v2.171H0z"/></symbol></defs><path class="a" d="M0 0h142v73.814H0z"/><g style="animation-duration:19.03119300000001s;animation-iteration-count:infinite;animation-name:j;animation-timing-function:steps(1,end)"><svg width="5538"><svg><use xlink:href="#a"/><use xlink:href="#b" x="-.004"/></svg><svg x="142"><use xlink:href="#a"/><use xlink:href="#b" x="-.004"/></svg><svg x="284"><use xlink:href="#a"/><use xlink:href="#b" x="20.996"/><use xlink:href="#1"/></svg><svg x="426"><use xlink:href="#a"/><use xlink:href="#b" x="-.004" y="2.146"/><use xlink:href="#2"/></svg><svg x="568"><use xlink:href="#a"/><use xlink:href="#b" x="1.996" y="2.146"/><use xlink:href="#2"/><use xlink:href="#3" y="2.171"/></svg><svg x="710"><use xlink:href="#a"/><use xlink:href="#b" x="-.004" y="4.317"/><use xlink:href="#2"/><use xlink:href="#4" y="2.171"/></svg><svg x="852"><use xlink:href="#a"/><use xlink:href="#b" x="1.996" y="4.317"/><use xlink:href="#2"/><use xlink:href="#4" y="2.171"/><use xlink:href="#3" y="4.342"/></svg><svg x="994"><use xlink:href="#a"/><use xlink:href="#b" x="-.004" y="6.488"/><use xlink:href="#2"/><use xlink:href="#4" y="2.171"/><use xlink:href="#5" y="4.342"/></svg><svg x="1136"><use xlink:href="#a"/><use xlink:href="#b" x="1.996" y="6.488"/><use xlink:href="#2"/><use xlink:href="#4" y="2.171"/><use xlink:href="#5" y="4.342"/><use xlink:href="#3" y="6.513"/></svg><svg x="1278"><use xlink:href="#a"/><use xlink:href="#b" x="59.996" y="6.488"/><use xlink:href="#2"/><use xlink:href="#4" y="2.171"/><use xlink:href="#5" y="4.342"/><use xlink:href="#6" y="6.513"/></svg><svg x="1420"><use xlink:href="#a"/><use xlink:href="#b" x="-.004" y="8.659"/><use xlink:href="#2"/><use xlink:href="#4" y="2.171"/><use xlink:href="#5" y="4.342"/><use xlink:href="#6" y="6.513"/></svg><svg x="1562"><use xlink:href="#a"/><use xlink:href="#b" x="-.004" y="10.83"/><use xlink:href="#2"/><use xlink:href="#4" y="2.171"/><use xlink:href="#5" y="4.342"/><use xlink:href="#6" y="6.513"/><use xlink:href="#7" y="8.684"/></svg><svg x="1704"><use xlink:href="#a"/><use xlink:href="#b" x="-.004" y="13.001"/><use xlink:href="#2"/><use xlink:href="#4" y="2.171"/><use xlink:href="#5" y="4.342"/><use xlink:href="#6" y="6.513"/><use xlink:href="#7" y="8.684"/><use xlink:href="#8" y="10.855"/></svg><svg x="1846"><use xlink:href="#a"/><use xlink:href="#b" x="-.004" y="15.172"/><use xlink:href="#2"/><use xlink:href="#4" y="2.171"/><use xlink:href="#5" y="4.342"/><use xlink:href="#6" y="6.513"/><use xlink:href="#7" y="8.684"/><use xlink:href="#8" y="10.855"/><use xlink:href="#9" y="13.026"/></svg><svg x="1988"><use xlink:href="#a"/><use xlink:href="#b" x="-.004" y="17.343"/><use xlink:href="#2"/><use xlink:href="#4" y="2.171"/><use xlink:href="#5" y="4.342"/><use xlink:href="#6" y="6.513"/><use xlink:href="#7" y="8.684"/><use xlink:href="#8" y="10.855"/><use xlink:href="#9" y="13.026"/><use xlink:href="#10" y="15.197"/></svg><svg x="2130"><use xlink:href="#a"/><use xlink:href="#b" x="-.004" y="19.514"/><use xlink:href="#2"/><use xlink:href="#4" y="2.171"/><use xlink:href="#5" y="4.342"/><use xlink:href="#6" y="6.513"/><use xlink:href="#7" y="8.684"/><use xlink:href="#8" y="10.855"/><use xlink:href="#9" y="13.026"/><use xlink:href="#10" y="15.197"/><use xlink:href="#11" y="17.368"/></svg><svg x="2272"><use xlink:href="#a"/><use xlink:href="#b" x="-.004" y="21.685"/><use xlink:href="#2"/><use xlink:href="#4" y="2.171"/><use xlink:href="#5" y="4.342"/><use xlink:href="#6" y="6.513"/><use xlink:href="#7" y="8.684"/><use xlink:href="#8" y="10.855"/><use xlink:href="#9" y="13.026"/><use xlink:href="#10" y="15.197"/><use xlink:href="#11" y="17.368"/><use xlink:href="#12" y="19.539"/></svg><svg x="2414"><use xlink:href="#a"/><use xlink:href="#b" x="-.004" y="23.856"/><use xlink:href="#2"/><use xlink:href="#4" y="2.171"/><use xlink:href="#5" y="4.342"/><use xlink:href="#6" y="6.513"/><use xlink:href="#7" y="8.684"/><use xlink:href="#8" y="10.855"/><use xlink:href="#9" y="13.026"/><use xlink:href="#10" y="15.197"/><use xlink:href="#11" y="17.368"/><use xlink:href="#12" y="19.539"/><use xlink:href="#13" y="21.71"/></svg><svg x="2556"><use xlink:href="#a"/><use xlink:href="#b" x="-.004" y="28.198"/><use xlink:href="#2"/><use xlink:href="#4" y="2.171"/><use xlink:href="#5" y="4.342"/><use xlink:href="#6" y="6.513"/><use xlink:href="#7" y="8.684"/><use xlink:href="#8" y="10.855"/><use xlink:href="#9" y="13.026"/><use xlink:href="#10" y="15.197"/><use xlink:href="#11" y="17.368"/><use xlink:href="#12" y="19.539"/><use xlink:href="#13" y="21.71"/><use xlink:href="#14" y="23.881"/><use xlink:href="#15" y="26.052"/></svg><svg x="2698"><use xlink:href="#a"/><use xlink:href="#b" x="-.004" y="32.54"/><use xlink:href="#2"/><use xlink:href="#4" y="2.171"/><use xlink:href="#5" y="4.342"/><use xlink:href="#6" y="6.513"/><use xlink:href="#7" y="8.684"/><use xlink:href="#8" y="10.855"/><use xlink:href="#9" y="13.026"/><use xlink:href="#10" y="15.197"/><use xlink:href="#11" y="17.368"/><use xlink:href="#12" y="19.539"/><use xlink:href="#13" y="21.71"/><use xlink:href="#14" y="23.881"/><use xlink:href="#15" y="26.052"/><use xlink:href="#16" y="28.223"/><use xlink:href="#17" y="30.394"/></svg><svg x="2840"><use xlink:href="#a"/><use xlink:href="#b" x="-.004" y="34.711"/><use xlink:href="#2"/><use xlink:href="#4" y="2.171"/><use xlink:href="#5" y="4.342"/><use xlink:href="#6" y="6.513"/><use xlink:href="#7" y="8.684"/><use xlink:href="#8" y="10.855"/><use xlink:href="#9" y="13.026"/><use xlink:href="#10" y="15.197"/><use xlink:href="#11" y="17.368"/><use xlink:href="#12" y="19.539"/><use xlink:href="#13" y="21.71"/><use xlink:href="#14" y="23.881"/><use xlink:href="#15" y="26.052"/><use xlink:href="#16" y="28.223"/><use xlink:href="#17" y="30.394"/><use xlink:href="#18" y="32.565"/></svg><svg x="2982"><use xlink:href="#a"/><use xlink:href="#b" x="-.004" y="36.882"/><use xlink:href="#2"/><use xlink:href="#4" y="2.171"/><use xlink:href="#5" y="4.342"/><use xlink:href="#6" y="6.513"/><use xlink:href="#7" y="8.684"/><use xlink:href="#8" y="10.855"/><use xlink:href="#9" y="13.026"/><use xlink:href="#10" y="15.197"/><use xlink:href="#11" y="17.368"/><use xlink:href="#12" y="19.539"/><use xlink:href="#13" y="21.71"/><use xlink:href="#14" y="23.881"/><use xlink:href="#15" y="26.052"/><use xlink:href="#16" y="28.223"/><use xlink:href="#17" y="30.394"/><use xlink:href="#18" y="32.565"/><use xlink:href="#19" y="34.736"/></svg><svg x="3124"><use xlink:href="#a"/><use xlink:href="#b" x="-.004" y="39.053"/><use xlink:href="#2"/><use xlink:href="#4" y="2.171"/><use xlink:href="#5" y="4.342"/><use xlink:href="#6" y="6.513"/><use xlink:href="#7" y="8.684"/><use xlink:href="#8" y="10.855"/><use xlink:href="#9" y="13.026"/><use xlink:href="#10" y="15.197"/><use xlink:href="#11" y="17.368"/><use xlink:href="#12" y="19.539"/><use xlink:href="#13" y="21.71"/><use xlink:href="#14" y="23.881"/><use xlink:href="#15" y="26.052"/><use xlink:href="#16" y="28.223"/><use xlink:href="#17" y="30.394"/><use xlink:href="#18" y="32.565"/><use xlink:href="#19" y="34.736"/><use xlink:href="#20" y="36.907"/></svg><svg x="3266"><use xlink:href="#a"/><use xlink:href="#b" x="-.004" y="43.395"/><use xlink:href="#2"/><use xlink:href="#4" y="2.171"/><use xlink:href="#5" y="4.342"/><use xlink:href="#6" y="6.513"/><use xlink:href="#7" y="8.684"/><use xlink:href="#8" y="10.855"/><use xlink:href="#9" y="13.026"/><use xlink:href="#10" y="15.197"/><use xlink:href="#11" y="17.368"/><use xlink:href="#12" y="19.539"/><use xlink:href="#13" y="21.71"/><use xlink:href="#14" y="23.881"/><use xlink:href="#15" y="26.052"/><use xlink:href="#16" y="28.223"/><use xlink:href="#17" y="30.394"/><use xlink:href="#18" y="32.565"/><use xlink:href="#19" y="34.736"/><use xlink:href="#20" y="36.907"/><use xlink:href="#21" y="39.078"/><use xlink:href="#22" y="41.249"/></svg><svg x="3408"><use xlink:href="#a"/><use xlink:href="#b" x="-.004" y="47.737"/><use xlink:href="#2"/><use xlink:href="#4" y="2.171"/><use xlink:href="#5" y="4.342"/><use xlink:href="#6" y="6.513"/><use xlink:href="#7" y="8.684"/><use xlink:href="#8" y="10.855"/><use xlink:href="#9" y="13.026"/><use xlink:href="#10" y="15.197"/><use xlink:href="#11" y="17.368"/><use xlink:href="#12" y="19.539"/><use xlink:href="#13" y="21.71"/><use xlink:href="#14" y="23.881"/><use xlink:href="#15" y="26.052"/><use xlink:href="#16" y="28.223"/><use xlink:href="#17" y="30.394"/><use xlink:href="#18" y="32.565"/><use xlink:href="#19" y="34.736"/><use xlink:href="#20" y="36.907"/><use xlink:href="#21" y="39.078"/><use xlink:href="#22" y="41.249"/><use xlink:href="#23" y="43.42"/><use xlink:href="#24" y="45.591"/></svg><svg x="3550"><use xlink:href="#a"/><use xlink:href="#b" x="-.004" y="49.908"/><use xlink:href="#2"/><use xlink:href="#4" y="2.171"/><use xlink:href="#5" y="4.342"/><use xlink:href="#6" y="6.513"/><use xlink:href="#7" y="8.684"/><use xlink:href="#8" y="10.855"/><use xlink:href="#9" y="13.026"/><use xlink:href="#10" y="15.197"/><use xlink:href="#11" y="17.368"/><use xlink:href="#12" y="19.539"/><use xlink:href="#13" y="21.71"/><use xlink:href="#14" y="23.881"/><use xlink:href="#15" y="26.052"/><use xlink:href="#16" y="28.223"/><use xlink:href="#17" y="30.394"/><use xlink:href="#18" y="32.565"/><use xlink:href="#19" y="34.736"/><use xlink:href="#20" y="36.907"/><use xlink:href="#21" y="39.078"/><use xlink:href="#22" y="41.249"/><use xlink:href="#23" y="43.42"/><use xlink:href="#24" y="45.591"/><use xlink:href="#25" y="47.762"/></svg><svg x="3692"><use xlink:href="#a"/><use xlink:href="#b" x="-.004" y="52.079"/><use xlink:href="#2"/><use xlink:href="#4" y="2.171"/><use xlink:href="#5" y="4.342"/><use xlink:href="#6" y="6.513"/><use xlink:href="#7" y="8.684"/><use xlink:href="#8" y="10.855"/><use xlink:href="#9" y="13.026"/><use xlink:href="#10" y="15.197"/><use xlink:href="#11" y="17.368"/><use xlink:href="#12" y="19.539"/><use xlink:href="#13" y="21.71"/><use xlink:href="#14" y="23.881"/><use xlink:href="#15" y="26.052"/><use xlink:href="#16" y="28.223"/><use xlink:href="#17" y="30.394"/><use xlink:href="#18" y="32.565"/><use xlink:href="#19" y="34.736"/><use xlink:href="#20" y="36.907"/><use xlink:href="#21" y="39.078"/><use xlink:href="#22" y="41.249"/><use xlink:href="#23" y="43.42"/><use xlink:href="#24" y="45.591"/><use xlink:href="#25" y="47.762"/><use xlink:href="#26" y="49.933"/></svg><svg x="3834"><use xlink:href="#a"/><use xlink:href="#b" x="-.004" y="54.25"/><use xlink:href="#2"/><use xlink:href="#4" y="2.171"/><use xlink:href="#5" y="4.342"/><use xlink:href="#6" y="6.513"/><use xlink:href="#7" y="8.684"/><use xlink:href="#8" y="10.855"/><use xlink:href="#9" y="13.026"/><use xlink:href="#10" y="15.197"/><use xlink:href="#11" y="17.368"/><use xlink:href="#12" y="19.539"/><use xlink:href="#13" y="21.71"/><use xlink:href="#14" y="23.881"/><use xlink:href="#15" y="26.052"/><use xlink:href="#16" y="28.223"/><use xlink:href="#17" y="30.394"/><use xlink:href="#18" y="32.565"/><use xlink:href="#19" y="34.736"/><use xlink:href="#20" y="36.907"/><use xlink:href="#21" y="39.078"/><use xlink:href="#22" y="41.249"/><use xlink:href="#23" y="43.42"/><use xlink:href="#24" y="45.591"/><use xlink:href="#25" y="47.762"/><use xlink:href="#26" y="49.933"/><use xlink:href="#27" y="52.104"/></svg><svg x="3976"><use xlink:href="#a"/><use xlink:href="#b" x="-.004" y="56.421"/><use xlink:href="#2"/><use xlink:href="#4" y="2.171"/><use xlink:href="#5" y="4.342"/><use xlink:href="#6" y="6.513"/><use xlink:href="#7" y="8.684"/><use xlink:href="#8" y="10.855"/><use xlink:href="#9" y="13.026"/><use xlink:href="#10" y="15.197"/><use xlink:href="#11" y="17.368"/><use xlink:href="#12" y="19.539"/><use xlink:href="#13" y="21.71"/><use xlink:href="#14" y="23.881"/><use xlink:href="#15" y="26.052"/><use xlink:href="#16" y="28.223"/><use xlink:href="#17" y="30.394"/><use xlink:href="#18" y="32.565"/><use xlink:href="#19" y="34.736"/><use xlink:href="#20" y="36.907"/><use xlink:href="#21" y="39.078"/><use xlink:href="#22" y="41.249"/><use xlink:href="#23" y="43.42"/><use xlink:href="#24" y="45.591"/><use xlink:href="#25" y="47.762"/><use xlink:href="#26" y="49.933"/><use xlink:href="#27" y="52.104"/><use xlink:href="#28" y="54.275"/></svg><svg x="4118"><use xlink:href="#a"/><use xlink:href="#b" x="-.004" y="58.592"/><use xlink:href="#2"/><use xlink:href="#4" y="2.171"/><use xlink:href="#5" y="4.342"/><use xlink:href="#6" y="6.513"/><use xlink:href="#7" y="8.684"/><use xlink:href="#8" y="10.855"/><use xlink:href="#9" y="13.026"/><use xlink:href="#10" y="15.197"/><use xlink:href="#11" y="17.368"/><use xlink:href="#12" y="19.539"/><use xlink:href="#13" y="21.71"/><use xlink:href="#14" y="23.881"/><use xlink:href="#15" y="26.052"/><use xlink:href="#16" y="28.223"/><use xlink:href="#17" y="30.394"/><use xlink:href="#18" y="32.565"/><use xlink:href="#19" y="34.736"/><use xlink:href="#20" y="36.907"/><use xlink:href="#21" y="39.078"/><use xlink:href="#22" y="41.249"/><use xlink:href="#23" y="43.42"/><use xlink:href="#24" y="45.591"/><use xlink:href="#25" y="47.762"/><use xlink:href="#26" y="49.933"/><use xlink:href="#27" y="52.104"/><use xlink:href="#28" y="54.275"/><use xlink:href="#29" y="56.446"/></svg><svg x="4260"><use xlink:href="#a"/><use xlink:href="#b" x="-.004" y="60.763"/><use xlink:href="#2"/><use xlink:href="#4" y="2.171"/><use xlink:href="#5" y="4.342"/><use xlink:href="#6" y="6.513"/><use xlink:href="#7" y="8.684"/><use xlink:href="#8" y="10.855"/><use xlink:href="#9" y="13.026"/><use xlink:href="#10" y="15.197"/><use xlink:href="#11" y="17.368"/><use xlink:href="#12" y="19.539"/><use xlink:href="#13" y="21.71"/><use xlink:href="#14" y="23.881"/><use xlink:href="#15" y="26.052"/><use xlink:href="#16" y="28.223"/><use xlink:href="#17" y="30.394"/><use xlink:href="#18" y="32.565"/><use xlink:href="#19" y="34.736"/><use xlink:href="#20" y="36.907"/><use xlink:href="#21" y="39.078"/><use xlink:href="#22" y="41.249"/><use xlink:href="#23" y="43.42"/><use xlink:href="#24" y="45.591"/><use xlink:href="#25" y="47.762"/><use xlink:href="#26" y="49.933"/><use xlink:href="#27" y="52.104"/><use xlink:href="#28" y="54.275"/><use xlink:href="#29" y="56.446"/><use xlink:href="#30" y="58.617"/></svg><svg x="4402"><use xlink:href="#a"/><use xlink:href="#b" x="-.004" y="62.934"/><use xlink:href="#2"/><use xlink:href="#4" y="2.171"/><use xlink:href="#5" y="4.342"/><use xlink:href="#6" y="6.513"/><use xlink:href="#7" y="8.684"/><use xlink:href="#8" y="10.855"/><use xlink:href="#9" y="13.026"/><use xlink:href="#10" y="15.197"/><use xlink:href="#11" y="17.368"/><use xlink:href="#12" y="19.539"/><use xlink:href="#13" y="21.71"/><use xlink:href="#14" y="23.881"/><use xlink:href="#15" y="26.052"/><use xlink:href="#16" y="28.223"/><use xlink:href="#17" y="30.394"/><use xlink:href="#18" y="32.565"/><use xlink:href="#19" y="34.736"/><use xlink:href="#20" y="36.907"/><use xlink:href="#21" y="39.078"/><use xlink:href="#22" y="41.249"/><use xlink:href="#23" y="43.42"/><use xlink:href="#24" y="45.591"/><use xlink:href="#25" y="47.762"/><use xlink:href="#26" y="49.933"/><use xlink:href="#27" y="52.104"/><use xlink:href="#28" y="54.275"/><use xlink:href="#29" y="56.446"/><use xlink:href="#30" y="58.617"/><use xlink:href="#31" y="60.788"/></svg><svg x="4544"><use xlink:href="#a"/><use xlink:href="#b" x="-.004" y="67.276"/><use xlink:href="#2"/><use xlink:href="#4" y="2.171"/><use xlink:href="#5" y="4.342"/><use xlink:href="#6" y="6.513"/><use xlink:href="#7" y="8.684"/><use xlink:href="#8" y="10.855"/><use xlink:href="#9" y="13.026"/><use xlink:href="#10" y="15.197"/><use xlink:href="#11" y="17.368"/><use xlink:href="#12" y="19.539"/><use xlink:href="#13" y="21.71"/><use xlink:href="#14" y="23.881"/><use xlink:href="#15" y="26.052"/><use xlink:href="#16" y="28.223"/><use xlink:href="#17" y="30.394"/><use xlink:href="#18" y="32.565"/><use xlink:href="#19" y="34.736"/><use xlink:href="#20" y="36.907"/><use xlink:href="#21" y="39.078"/><use xlink:href="#22" y="41.249"/><use xlink:href="#23" y="43.42"/><use xlink:href="#24" y="45.591"/><use xlink:href="#25" y="47.762"/><use xlink:href="#26" y="49.933"/><use xlink:href="#27" y="52.104"/><use xlink:href="#28" y="54.275"/><use xlink:href="#29" y="56.446"/><use xlink:href="#30" y="58.617"/><use xlink:href="#31" y="60.788"/><use xlink:href="#32" y="62.959"/><use xlink:href="#33" y="65.13"/></svg><svg x="4686"><use xlink:href="#a"/><use xlink:href="#b" x="-.004" y="71.618"/><use xlink:href="#2"/><use xlink:href="#4" y="2.171"/><use xlink:href="#5" y="4.342"/><use xlink:href="#6" y="6.513"/><use xlink:href="#7" y="8.684"/><use xlink:href="#8" y="10.855"/><use xlink:href="#9" y="13.026"/><use xlink:href="#10" y="15.197"/><use xlink:href="#11" y="17.368"/><use xlink:href="#12" y="19.539"/><use xlink:href="#13" y="21.71"/><use xlink:href="#14" y="23.881"/><use xlink:href="#15" y="26.052"/><use xlink:href="#16" y="28.223"/><use xlink:href="#17" y="30.394"/><use xlink:href="#18" y="32.565"/><use xlink:href="#19" y="34.736"/><use xlink:href="#20" y="36.907"/><use xlink:href="#21" y="39.078"/><use xlink:href="#22" y="41.249"/><use xlink:href="#23" y="43.42"/><use xlink:href="#24" y="45.591"/><use xlink:href="#25" y="47.762"/><use xlink:href="#26" y="49.933"/><use xlink:href="#27" y="52.104"/><use xlink:href="#28" y="54.275"/><use xlink:href="#29" y="56.446"/><use xlink:href="#30" y="58.617"/><use xlink:href="#31" y="60.788"/><use xlink:href="#32" y="62.959"/><use xlink:href="#33" y="65.13"/><use xlink:href="#34" y="67.301"/><use xlink:href="#35" y="69.472"/></svg><svg x="4828"><use xlink:href="#a"/><use xlink:href="#b" x="-.004" y="71.618"/><use xlink:href="#4"/><use xlink:href="#5" y="2.171"/><use xlink:href="#6" y="4.342"/><use xlink:href="#7" y="6.513"/><use xlink:href="#8" y="8.684"/><use xlink:href="#9" y="10.855"/><use xlink:href="#10" y="13.026"/><use xlink:href="#11" y="15.197"/><use xlink:href="#12" y="17.368"/><use xlink:href="#13" y="19.539"/><use xlink:href="#14" y="21.71"/><use xlink:href="#15" y="23.881"/><use xlink:href="#16" y="26.052"/><use xlink:href="#17" y="28.223"/><use xlink:href="#18" y="30.394"/><use xlink:href="#19" y="32.565"/><use xlink:href="#20" y="34.736"/><use xlink:href="#21" y="36.907"/><use xlink:href="#22" y="39.078"/><use xlink:href="#23" y="41.249"/><use xlink:href="#24" y="43.42"/><use xlink:href="#25" y="45.591"/><use xlink:href="#26" y="47.762"/><use xlink:href="#27" y="49.933"/><use xlink:href="#28" y="52.104"/><use xlink:href="#29" y="54.275"/><use xlink:href="#30" y="56.446"/><use xlink:href="#31" y="58.617"/><use xlink:href="#32" y="60.788"/><use xlink:href="#33" y="62.959"/><use xlink:href="#34" y="65.13"/><use xlink:href="#35" y="67.301"/><use xlink:href="#36" y="69.472"/></svg><svg x="4970"><use xlink:href="#a"/><use xlink:href="#b" x="-.004" y="71.618"/><use xlink:href="#5"/><use xlink:href="#6" y="2.171"/><use xlink:href="#7" y="4.342"/><use xlink:href="#8" y="6.513"/><use xlink:href="#9" y="8.684"/><use xlink:href="#10" y="10.855"/><use xlink:href="#11" y="13.026"/><use xlink:href="#12" y="15.197"/><use xlink:href="#13" y="17.368"/><use xlink:href="#14" y="19.539"/><use xlink:href="#15" y="21.71"/><use xlink:href="#16" y="23.881"/><use xlink:href="#17" y="26.052"/><use xlink:href="#18" y="28.223"/><use xlink:href="#19" y="30.394"/><use xlink:href="#20" y="32.565"/><use xlink:href="#21" y="34.736"/><use xlink:href="#22" y="36.907"/><use xlink:href="#23" y="39.078"/><use xlink:href="#24" y="41.249"/><use xlink:href="#25" y="43.42"/><use xlink:href="#26" y="45.591"/><use xlink:href="#27" y="47.762"/><use xlink:href="#28" y="49.933"/><use xlink:href="#29" y="52.104"/><use xlink:href="#30" y="54.275"/><use xlink:href="#31" y="56.446"/><use xlink:href="#32" y="58.617"/><use xlink:href="#33" y="60.788"/><use xlink:href="#34" y="62.959"/><use xlink:href="#35" y="65.13"/><use xlink:href="#36" y="67.301"/><use xlink:href="#37" y="69.472"/></svg><svg x="5112"><use xlink:href="#a"/><use xlink:href="#b" x="-.004" y="71.618"/><use xlink:href="#5"/><use xlink:href="#6" y="2.171"/><use xlink:href="#7" y="4.342"/><use xlink:href="#8" y="6.513"/><use xlink:href="#9" y="8.684"/><use xlink:href="#10" y="10.855"/><use xlink:href="#11" y="13.026"/><use xlink:href="#12" y="15.197"/><use xlink:href="#13" y="17.368"/><use xlink:href="#14" y="19.539"/><use xlink:href="#15" y="21.71"/><use xlink:href="#16" y="23.881"/><use xlink:href="#17" y="26.052"/><use xlink:href="#18" y="28.223"/><use xlink:href="#19" y="30.394"/><use xlink:href="#20" y="32.565"/><use xlink:href="#21" y="34.736"/><use xlink:href="#22" y="36.907"/><use xlink:href="#23" y="39.078"/><use xlink:href="#24" y="41.249"/><use xlink:href="#25" y="43.42"/><use xlink:href="#26" y="45.591"/><use xlink:href="#27" y="47.762"/><use xlink:href="#28" y="49.933"/><use xlink:href="#29" y="52.104"/><use xlink:href="#30" y="54.275"/><use xlink:href="#31" y="56.446"/><use xlink:href="#32" y="58.617"/><use xlink:href="#33" y="60.788"/><use xlink:href="#34" y="62.959"/><use xlink:href="#35" y="65.13"/><use xlink:href="#36" y="67.301"/><use xlink:href="#37" y="69.472"/></svg><svg x="5254"><use xlink:href="#a"/><use xlink:href="#b" x="20.996" y="71.618"/><use xlink:href="#5"/><use xlink:href="#6" y="2.171"/><use xlink:href="#7" y="4.342"/><use xlink:href="#8" y="6.513"/><use xlink:href="#9" y="8.684"/><use xlink:href="#10" y="10.855"/><use xlink:href="#11" y="13.026"/><use xlink:href="#12" y="15.197"/><use xlink:href="#13" y="17.368"/><use xlink:href="#14" y="19.539"/><use xlink:href="#15" y="21.71"/><use xlink:href="#16" y="23.881"/><use xlink:href="#17" y="26.052"/><use xlink:href="#18" y="28.223"/><use xlink:href="#19" y="30.394"/><use xlink:href="#20" y="32.565"/><use xlink:href="#21" y="34.736"/><use xlink:href="#22" y="36.907"/><use xlink:href="#23" y="39.078"/><use xlink:href="#24" y="41.249"/><use xlink:href="#25" y="43.42"/><use xlink:href="#26" y="45.591"/><use xlink:href="#27" y="47.762"/><use xlink:href="#28" y="49.933"/><use xlink:href="#29" y="52.104"/><use xlink:href="#30" y="54.275"/><use xlink:href="#31" y="56.446"/><use xlink:href="#32" y="58.617"/><use xlink:href="#33" y="60.788"/><use xlink:href="#34" y="62.959"/><use xlink:href="#35" y="65.13"/><use xlink:href="#36" y="67.301"/><use xlink:href="#37" y="69.472"/><use xlink:href="#1" y="71.643"/></svg><svg x="5396"><use xlink:href="#a"/><use xlink:href="#b" x="-.004" y="71.618"/><use xlink:href="#6"/><use xlink:href="#7" y="2.171"/><use xlink:href="#8" y="4.342"/><use xlink:href="#9" y="6.513"/><use xlink:href="#10" y="8.684"/><use xlink:href="#11" y="10.855"/><use xlink:href="#12" y="13.026"/><use xlink:href="#13" y="15.197"/><use xlink:href="#14" y="17.368"/><use xlink:href="#15" y="19.539"/><use xlink:href="#16" y="21.71"/><use xlink:href="#17" y="23.881"/><use xlink:href="#18" y="26.052"/><use xlink:href="#19" y="28.223"/><use xlink:href="#20" y="30.394"/><use xlink:href="#21" y="32.565"/><use xlink:href="#22" y="34.736"/><use xlink:href="#23" y="36.907"/><use xlink:href="#24" y="39.078"/><use xlink:href="#25" y="41.249"/><use xlink:href="#26" y="43.42"/><use xlink:href="#27" y="45.591"/><use xlink:href="#28" y="47.762"/><use xlink:href="#29" y="49.933"/><use xlink:href="#30" y="52.104"/><use xlink:href="#31" y="54.275"/><use xlink:href="#32" y="56.446"/><use xlink:href="#33" y="58.617"/><use xlink:href="#34" y="60.788"/><use xlink:href="#35" y="62.959"/><use xlink:href="#36" y="65.13"/><use xlink:href="#37" y="67.301"/><text y="71.142" class="f">[sugarcube-project]$</text><text x="21.042" y="71.142" class="f">exit</text></svg></svg></g></g></svg></svg>