<?xml version="1.0" standalone="no"?>
<!DOCTYPE svg PUBLIC "-//W3C//DTD SVG 20010904//EN"
 "http://www.w3.org/TR/2001/REC-SVG-20010904/DTD/svg10.dtd">
<svg version="1.0" xmlns="http://www.w3.org/2000/svg"
 width="656.000000pt" height="656.000000pt" viewBox="0 0 656.000000 656.000000"
 preserveAspectRatio="xMidYMid meet">
<metadata>
Created by potrace 1.14, written by Peter Selinger 2001-2017
</metadata>
<g transform="translate(0.000000,656.000000) scale(0.100000,-0.100000)"
fill="#000000" stroke="none">
<path d="M3210 6243 c0 -9 -82 -32 -127 -36 -11 -1 -19 -5 -17 -8 2 -3 -14
-14 -36 -24 -22 -10 -40 -22 -40 -28 0 -5 -7 -6 -16 -3 -8 3 -13 2 -10 -2 5
-9 -63 -47 -76 -44 -5 1 -8 -2 -8 -8 0 -6 -7 -10 -15 -10 -8 0 -15 -4 -15 -10
0 -5 -7 -10 -15 -10 -8 0 -15 -4 -15 -10 0 -5 -8 -7 -17 -3 -10 3 -15 3 -11
-2 9 -10 -73 -55 -86 -47 -5 3 -6 0 -3 -5 8 -13 -20 -26 -35 -16 -7 3 -8 1 -4
-6 5 -7 -4 -15 -23 -22 -17 -6 -31 -15 -31 -21 0 -5 -4 -6 -10 -3 -5 3 -10 1
-10 -4 0 -6 -6 -11 -12 -11 -7 0 -24 -9 -38 -20 -18 -14 -28 -16 -38 -8 -9 8
-11 7 -7 -4 4 -11 -3 -20 -24 -29 -17 -8 -31 -18 -31 -23 0 -4 -9 -6 -20 -3
-10 3 -18 1 -17 -3 1 -4 0 -7 -3 -7 -3 1 -16 -8 -30 -20 -22 -22 -34 -27 -52
-24 -5 0 -8 -3 -8 -7 0 -5 -18 -17 -40 -28 -22 -10 -40 -23 -40 -27 0 -5 -4
-5 -10 -2 -5 3 -10 1 -10 -4 0 -6 -4 -11 -10 -11 -5 0 -34 -16 -64 -35 -30
-19 -57 -35 -60 -35 -3 0 -27 -14 -53 -30 -26 -17 -54 -28 -61 -25 -7 3 -10 0
-7 -6 4 -6 -2 -13 -14 -16 -12 -3 -21 -9 -21 -14 0 -5 -6 -9 -14 -9 -7 0 -25
-9 -40 -21 -15 -11 -33 -18 -41 -15 -8 3 -14 0 -12 -6 1 -6 -16 -20 -38 -32
-22 -12 -42 -23 -45 -26 -3 -3 -16 -11 -29 -18 -71 -40 -99 -57 -126 -73 -16
-11 -37 -22 -45 -26 -8 -3 -32 -17 -52 -30 -21 -13 -38 -21 -38 -18 0 3 -10
-3 -22 -15 -12 -11 -27 -20 -33 -20 -7 0 -22 -9 -35 -20 -21 -18 -29 -22 -46
-19 -4 0 -10 -4 -13 -9 -10 -16 -139 -91 -145 -85 -3 4 -6 2 -6 -4 0 -5 -21
-21 -48 -34 -26 -13 -53 -30 -60 -36 -7 -7 -19 -13 -27 -13 -7 0 -15 -3 -17
-7 -1 -5 -23 -19 -48 -33 -58 -31 -60 -33 -141 -110 -38 -36 -69 -71 -69 -78
0 -7 -5 -10 -10 -7 -6 4 -10 3 -9 -2 3 -20 -2 -46 -8 -39 -10 10 -51 -118 -58
-184 -2 -14 -4 -27 -5 -30 -1 -3 -2 -8 -1 -12 3 -20 1 -107 -2 -130 -2 -16 0
-28 5 -28 5 0 6 -6 2 -12 -10 -16 -10 -50 0 -66 4 -6 3 -12 -2 -12 -5 0 -7
-15 -5 -32 3 -18 4 -39 4 -45 -1 -14 -1 -65 -1 -85 1 -7 -1 -28 -3 -45 -2 -18
1 -33 6 -33 4 0 5 -5 1 -12 -11 -17 -11 -58 -1 -58 4 0 5 -5 1 -12 -12 -18
-11 -78 0 -78 6 0 6 -4 -1 -11 -6 -6 -8 -23 -3 -45 4 -19 4 -34 0 -34 -4 0 -5
-12 -3 -27 4 -28 4 -51 -1 -88 -1 -11 2 -26 7 -32 6 -8 6 -13 0 -13 -10 0 -8
-53 2 -70 3 -5 1 -11 -3 -14 -10 -6 -9 -36 2 -54 4 -6 3 -12 -1 -12 -12 0 -10
-74 2 -82 6 -5 4 -8 -5 -8 -13 0 -13 -1 0 -10 8 -5 11 -10 5 -10 -5 0 -10 -16
-10 -35 0 -19 3 -35 8 -35 4 0 5 -5 2 -10 -12 -19 -14 -70 -3 -70 7 0 7 -4 0
-12 -8 -11 -9 -50 -2 -68 1 -3 2 -9 1 -13 -8 -43 -7 -67 3 -67 7 0 7 -3 1 -8
-13 -9 -15 -72 -3 -72 5 0 6 -5 3 -10 -12 -19 -14 -70 -3 -70 7 0 7 -4 0 -12
-10 -14 -10 -53 0 -64 4 -3 4 -13 1 -21 -10 -25 -9 -137 0 -150 5 -7 6 -13 1
-13 -5 0 -9 -14 -10 -30 -1 -17 3 -30 8 -30 5 0 5 -8 0 -17 -4 -10 -7 -29 -5
-43 4 -30 4 -32 0 -90 -1 -25 1 -51 6 -57 6 -8 6 -13 0 -13 -6 0 -8 -16 -6
-36 3 -27 0 -34 -9 -29 -7 4 -5 0 5 -8 10 -8 14 -18 9 -21 -10 -6 -8 -48 3
-65 3 -6 2 -11 -2 -11 -10 0 -10 -41 0 -57 4 -6 2 -13 -4 -15 -9 -3 -9 -9 0
-26 8 -14 8 -22 1 -22 -6 0 -7 -6 -1 -17 5 -10 14 -42 21 -71 6 -28 20 -70 31
-92 10 -21 19 -44 19 -50 0 -5 4 -10 9 -10 5 0 14 -13 21 -30 7 -16 16 -30 21
-30 5 0 15 -11 21 -25 6 -14 15 -25 20 -25 13 0 38 -26 33 -34 -3 -3 -2 -4 1
-1 4 2 21 -6 38 -18 44 -32 68 -46 94 -57 13 -5 20 -14 17 -20 -3 -6 1 -7 9
-4 9 3 16 1 16 -5 0 -6 3 -11 8 -10 15 2 52 -14 52 -22 0 -5 7 -9 15 -9 8 0
15 -4 15 -10 0 -5 7 -10 15 -10 8 0 31 -12 52 -26 21 -14 52 -32 70 -41 18 -8
30 -20 26 -26 -3 -5 -1 -7 4 -4 14 9 96 -37 86 -47 -5 -4 -3 -6 3 -4 19 6 114
-46 109 -60 -3 -7 0 -10 5 -7 10 6 118 -49 172 -86 14 -11 29 -19 33 -19 3 0
26 -13 50 -30 24 -16 48 -30 54 -30 6 0 11 -5 11 -11 0 -5 5 -7 10 -4 6 3 10
1 10 -4 0 -6 6 -10 13 -8 6 1 11 -3 10 -10 -2 -7 4 -10 12 -7 8 4 15 1 15 -5
0 -6 9 -11 20 -11 11 0 23 -7 26 -15 4 -8 10 -12 15 -9 5 3 9 0 9 -6 0 -6 5
-8 12 -4 8 5 9 2 4 -11 -5 -15 -4 -16 9 -5 8 7 15 8 15 2 0 -5 8 -12 17 -15
19 -6 75 -38 83 -48 3 -3 20 -12 38 -20 17 -8 32 -17 32 -20 0 -4 11 -10 25
-13 14 -4 25 -11 25 -16 0 -6 5 -10 11 -10 6 0 38 -16 72 -36 68 -40 109 -64
175 -101 24 -14 65 -38 90 -54 26 -16 55 -32 65 -35 9 -4 17 -10 17 -15 0 -5
7 -9 16 -9 8 0 22 -7 31 -15 8 -8 19 -13 24 -10 5 4 9 2 9 -3 0 -5 8 -13 18
-16 26 -10 84 -44 91 -53 3 -4 33 -22 66 -39 33 -17 59 -37 57 -44 -1 -6 2 -9
8 -5 5 3 16 3 23 -2 6 -4 18 -8 25 -9 8 -2 22 -10 31 -18 10 -9 32 -19 49 -22
18 -4 32 -10 32 -15 0 -5 3 -8 8 -7 4 1 34 -2 67 -7 85 -12 111 -12 185 1 36
7 68 10 73 7 4 -2 7 2 7 9 0 11 2 10 9 0 7 -11 9 -10 15 3 3 9 10 14 15 11 5
-4 11 -3 13 1 1 5 33 23 71 42 37 19 67 38 67 43 0 5 5 6 10 3 6 -3 10 -1 10
6 0 6 8 9 20 6 11 -3 18 -1 14 4 -5 8 10 13 29 10 5 -1 6 3 3 7 -3 5 16 20 42
33 26 13 49 27 52 30 4 5 227 134 319 185 19 10 40 23 45 27 26 19 128 76 146
82 11 4 20 11 20 16 0 6 5 7 10 4 6 -3 10 -2 10 3 0 9 37 25 53 23 4 -1 7 3 7
8 0 10 150 97 162 94 4 -2 8 1 8 7 0 5 17 17 38 27 20 9 39 20 42 23 10 13
188 110 200 110 7 0 10 3 7 7 -7 7 51 38 66 35 4 -1 7 3 7 9 0 6 7 8 16 5 8
-3 12 -2 9 4 -5 9 124 87 138 82 4 -1 7 3 7 9 0 6 7 8 17 5 10 -4 14 -4 11 0
-14 13 136 99 154 88 7 -5 8 -3 4 5 -5 8 0 14 13 18 12 3 21 10 21 15 0 6 9 8
20 5 11 -3 18 -2 15 3 -7 12 44 42 58 34 7 -4 9 -4 5 1 -8 8 14 24 62 45 13 6
27 14 30 18 6 9 38 29 70 44 67 33 160 108 160 130 0 6 3 8 6 5 7 -7 63 61 64
76 0 5 10 23 22 40 13 18 23 34 23 37 0 3 2 4 5 3 3 -1 5 11 6 25 0 15 4 41 9
57 4 17 10 151 12 300 3 192 8 272 16 277 9 6 9 8 0 8 -17 0 -17 42 0 59 9 11
9 13 0 7 -17 -10 -17 35 0 53 7 8 7 11 1 8 -16 -9 -15 295 0 305 8 5 8 8 0 8
-13 0 -16 98 -3 106 5 2 3 13 -3 24 -9 14 -9 22 1 33 8 11 9 17 1 22 -8 5 -8
10 0 20 7 8 7 15 1 19 -13 8 -10 46 4 46 6 0 7 3 0 8 -13 10 -17 62 -4 62 6 0
7 6 2 12 -12 20 -11 218 1 218 8 0 8 3 1 8 -12 8 -14 192 -2 192 5 0 5 6 1 12
-11 18 -12 48 -2 48 5 0 5 8 1 18 -11 21 -10 73 0 90 5 6 4 12 -1 12 -10 0 -8
42 2 59 4 5 2 13 -4 16 -8 5 -7 11 1 21 6 8 8 14 3 14 -5 0 -9 27 -9 60 0 33
3 60 7 60 4 0 3 11 -2 25 -5 14 -6 25 -2 25 4 0 8 9 8 20 0 11 -3 20 -7 20 -3
0 -3 18 1 39 4 22 3 44 -2 49 -6 6 -6 12 1 16 7 4 7 15 1 30 -5 13 -6 27 -3
30 9 9 10 49 1 74 -5 13 -4 22 3 22 6 0 7 6 2 13 -4 6 -9 23 -11 37 -1 14 -8
41 -14 60 -14 40 -19 60 -20 78 -1 6 -5 12 -9 12 -5 0 -16 17 -26 38 -9 20
-25 44 -35 53 -10 9 -15 19 -11 23 3 3 1 6 -5 6 -6 0 -14 9 -17 20 -4 11 -10
18 -15 15 -5 -3 -10 -2 -12 3 -1 4 -16 17 -32 30 -16 12 -25 22 -20 22 5 0 -9
9 -31 20 -22 11 -62 33 -90 50 -27 16 -65 37 -82 46 -18 9 -30 21 -26 27 3 6
1 7 -5 3 -15 -9 -52 15 -52 34 0 13 -1 13 -10 0 -7 -11 -10 -11 -10 -2 0 7 -4
10 -10 7 -5 -3 -10 -2 -10 3 0 6 -11 13 -25 16 -17 4 -23 11 -19 19 4 7 4 9
-1 5 -10 -10 -96 37 -118 65 -10 12 -16 16 -12 10 10 -20 -9 -15 -33 7 -12 12
-22 18 -22 14 0 -4 -8 -1 -17 7 -19 15 -42 28 -104 61 -22 11 -36 25 -32 31 3
6 1 7 -5 3 -13 -8 -85 28 -75 38 3 3 -3 6 -15 6 -12 0 -22 5 -22 10 0 6 -5 10
-11 10 -22 0 -289 162 -282 173 3 6 1 7 -5 3 -16 -10 -94 32 -86 46 4 6 3 8
-3 5 -13 -8 -73 20 -73 34 0 5 -3 8 -7 7 -10 -1 -46 13 -53 21 -3 4 -18 12
-33 19 -17 7 -25 17 -21 24 4 7 3 8 -4 4 -12 -7 -74 21 -80 37 -2 4 -10 7 -17
7 -7 0 -15 3 -17 8 -1 4 -25 18 -53 32 -27 14 -52 28 -55 31 -3 4 -24 16 -47
28 -24 12 -43 26 -43 32 0 6 -5 7 -10 4 -11 -7 -62 29 -54 38 3 3 -3 3 -13 1
-11 -3 -25 2 -32 10 -8 9 -17 16 -22 16 -8 0 -110 60 -119 71 -7 8 -44 22 -52
21 -5 -1 -8 5 -8 14 0 8 -4 13 -9 10 -4 -3 -33 10 -64 28 -31 19 -58 31 -61
28 -3 -3 -6 0 -6 7 0 7 -4 9 -10 6 -5 -3 -10 -2 -10 2 0 5 -11 10 -26 11 -14
1 -34 6 -44 12 -11 6 -37 11 -60 13 -22 1 -40 5 -40 8 0 3 -7 6 -15 6 -8 0
-15 -4 -15 -9 0 -5 -8 -5 -17 0 -10 5 -27 6 -38 2 -11 -4 -26 -3 -32 2 -8 6
-13 6 -13 1z"/>
<path d="M2073 5685 c0 -8 4 -12 9 -9 5 3 6 10 3 15 -9 13 -12 11 -12 -6z"/>
<path d="M1515 5380 c3 -5 8 -10 11 -10 2 0 4 5 4 10 0 6 -5 10 -11 10 -5 0
-7 -4 -4 -10z"/>
<path d="M5956 3078 c3 -5 10 -6 15 -3 13 9 11 12 -6 12 -8 0 -12 -4 -9 -9z"/>
<path d="M590 2161 c0 -6 4 -13 10 -16 6 -3 7 1 4 9 -7 18 -14 21 -14 7z"/>
<path d="M5215 1361 c-3 -5 -2 -12 3 -15 5 -3 9 1 9 9 0 17 -3 19 -12 6z"/>
<path d="M1876 993 c-6 -14 -5 -15 5 -6 7 7 10 15 7 18 -3 3 -9 -2 -12 -12z"/>
<path d="M4140 726 c0 -2 8 -10 18 -17 15 -13 16 -12 3 4 -13 16 -21 21 -21
13z"/>
<path d="M3993 585 c0 -8 4 -12 9 -9 5 3 6 10 3 15 -9 13 -12 11 -12 -6z"/>
<path d="M3876 558 c3 -5 10 -6 15 -3 13 9 11 12 -6 12 -8 0 -12 -4 -9 -9z"/>
</g>
</svg>
