<svg viewBox="0 0 110 122" fill="none" xmlns="http://www.w3.org/2000/svg">
<g filter="url(#filter0_d)">
<path d="M49.9785 7.33268L11.3307 29.7662C8.22112 31.5431 6.22209 34.8748 6.22209 38.6507L6 82.8513C6 86.4051 7.99903 89.9589 11.1086 91.7358L49.5342 113.947C52.6438 115.724 56.6419 115.724 59.7515 113.947L98.6213 91.5137C101.731 89.7368 103.73 86.4051 103.73 82.6292L103.952 38.4286C103.952 34.8748 101.953 31.3209 98.8435 29.544L60.4178 7.33268C57.0861 5.55577 53.3102 5.55577 49.9785 7.33268Z" fill="white"/>
<path d="M49.7564 67.5255V104.618L17.3278 85.9609C15.1067 84.6282 13.5519 82.185 13.5519 79.5196V42.4267L22.2144 47.3132L45.9805 61.0842C48.4238 62.4169 49.7564 64.8601 49.7564 67.5255Z" fill="#FD7268"/>
<path d="M95.5119 41.5381C95.5119 38.8728 94.1792 36.4295 91.9581 35.0968L75.9659 25.7681L66.1929 19.9931C66.1929 19.9931 66.1929 19.9931 65.9708 19.9931L59.5295 16.2172C59.3074 15.9951 58.8632 15.773 58.641 15.773L52.1998 11.997C49.5344 10.2201 46.4248 9.99801 43.7594 11.3307L42.6489 11.997L11.7751 29.9882C9.77605 31.0988 8.6655 33.0978 8.6655 33.0978C11.1087 31.7651 14.4405 31.9873 16.6616 33.542L32.6538 42.6487L41.5383 47.7573L43.0931 48.6458L55.9757 56.1976C58.1968 57.5303 59.7516 59.9736 59.7516 62.6389V80.8522V90.181V108.172C59.9737 111.06 58.641 114.169 56.1978 115.724C56.1978 115.724 58.1968 115.724 60.1958 114.614L91.2918 96.6223C91.2918 96.6223 92.6244 95.7339 92.8465 95.7339C93.0686 95.5117 93.0687 95.5117 93.2908 95.2896C95.0677 93.7348 96.1782 91.2916 95.9561 88.6262V80.408V80.1859V61.3062L95.5119 41.5381Z" fill="#FD7268"/>
</g>
<defs>
<filter id="filter0_d" x="0" y="0" width="109.952" height="121.724" filterUnits="userSpaceOnUse" color-interpolation-filters="sRGB">
<feFlood flood-opacity="0" result="BackgroundImageFix"/>
<feColorMatrix in="SourceAlpha" type="matrix" values="0 0 0 0 0 0 0 0 0 0 0 0 0 0 0 0 0 0 127 0"/>
<feOffset/>
<feGaussianBlur stdDeviation="3"/>
<feColorMatrix type="matrix" values="0 0 0 0 0 0 0 0 0 0 0 0 0 0 0 0 0 0 0.25 0"/>
<feBlend mode="normal" in2="BackgroundImageFix" result="effect1_dropShadow"/>
<feBlend mode="normal" in="SourceGraphic" in2="effect1_dropShadow" result="shape"/>
</filter>
</defs>
</svg>
